<svg aria-hidden="true" style="position: absolute; width: 0; height: 0; overflow: hidden;" version="1.1" xmlns="http://www.w3.org/2000/svg" xmlns:xlink="http://www.w3.org/1999/xlink">
<defs>
<symbol id="icon-logo_footer_1" viewBox="0 0 41 32">
<path fill="#3f5b6f" style="fill: var(--color1, #3f5b6f)" d="M5.481 22.636c0 0.378-0.078 0.714-0.234 1.008-0.156 0.295-0.383 0.545-0.683 0.75s-0.661 0.362-1.086 0.472c-0.425 0.109-0.906 0.164-1.445 0.164h-1.086v2.375h-0.947v-7.056h2.033c0.538 0 1.020 0.052 1.445 0.154 0.425 0.103 0.787 0.253 1.086 0.452s0.526 0.439 0.683 0.72c0.155 0.284 0.234 0.603 0.234 0.961zM4.644 22.685c0.007-0.676-0.206-1.199-0.638-1.57s-1.103-0.56-2.013-0.566l-1.047-0.010v4.283h1.096c0.862 0 1.506-0.188 1.927-0.566s0.647-0.901 0.674-1.57z"></path>
<path fill="#3f5b6f" style="fill: var(--color1, #3f5b6f)" d="M7.146 20.35v7.056h-0.947v-7.056h0.947z"></path>
<path fill="#3f5b6f" style="fill: var(--color1, #3f5b6f)" d="M13.745 25.762l0.672 0.232c-0.173 0.246-0.371 0.464-0.594 0.656-0.223 0.193-0.455 0.351-0.697 0.478-0.243 0.126-0.494 0.222-0.752 0.288s-0.515 0.099-0.767 0.099c-0.518 0-1-0.094-1.445-0.283s-0.831-0.45-1.156-0.785c-0.325-0.335-0.581-0.729-0.767-1.183s-0.279-0.949-0.279-1.486c0-0.51 0.093-0.98 0.279-1.411s0.443-0.805 0.773-1.123c0.328-0.317 0.716-0.566 1.161-0.745 0.445-0.178 0.93-0.268 1.455-0.268 0.352 0 0.672 0.046 0.961 0.139s0.55 0.221 0.783 0.382c0.233 0.163 0.44 0.35 0.623 0.562 0.182 0.212 0.337 0.437 0.463 0.676l-0.518 0.070c-0.087-0.158-0.198-0.33-0.334-0.511s-0.299-0.353-0.488-0.511c-0.19-0.158-0.407-0.29-0.653-0.397-0.246-0.105-0.525-0.158-0.837-0.158-0.386 0-0.744 0.083-1.076 0.248-0.332 0.166-0.62 0.396-0.861 0.691-0.243 0.295-0.432 0.645-0.568 1.049s-0.205 0.841-0.205 1.312c0 0.497 0.069 0.958 0.205 1.382s0.324 0.792 0.562 1.102c0.239 0.311 0.523 0.555 0.852 0.73 0.328 0.175 0.686 0.264 1.072 0.264 1.13-0.002 2.067-1.286 2.136-1.498z"></path>
<path fill="#3f5b6f" style="fill: var(--color1, #3f5b6f)" d="M17.375 21.494l-1.385 3.289h2.621l0.099 0.209h-2.81l-1.020 2.415h-0.286l2.626-6.111-0.428-0.964h1.118l3.093 7.074h-1.012l-2.616-5.911z"></path>
<path fill="#3f5b6f" style="fill: var(--color1, #3f5b6f)" d="M26.748 25.725c-0.027 0.259-0.116 0.497-0.269 0.715s-0.352 0.408-0.598 0.566c-0.246 0.158-0.532 0.283-0.857 0.372s-0.67 0.135-1.036 0.135c-1.395 0-2.343-0.731-2.758-1.402l0.599-0.315c0.389 0.58 1.194 1.448 2.159 1.448 0.644 0 1.154-0.126 1.53-0.378 0.376-0.252 0.572-0.573 0.593-0.965 0.014-0.178-0.006-0.334-0.055-0.468-0.049-0.132-0.153-0.255-0.309-0.368s-0.376-0.22-0.658-0.323c-0.282-0.103-0.65-0.214-1.101-0.333-0.525-0.139-0.966-0.29-1.325-0.452-0.359-0.163-0.644-0.343-0.857-0.542s-0.361-0.412-0.443-0.64c-0.083-0.229-0.111-0.476-0.084-0.74 0.020-0.265 0.102-0.508 0.25-0.73 0.146-0.222 0.337-0.416 0.572-0.581 0.236-0.165 0.512-0.293 0.828-0.382 0.315-0.090 0.652-0.135 1.011-0.135 0.564 0.013 1.055 0.108 1.47 0.283 0.415 0.176 0.785 0.459 1.111 0.85l-0.554 0.336c-0.273-0.344-0.597-0.68-0.906-0.888s-0.683-0.313-1.121-0.313c-0.313 0-0.6 0.046-0.862 0.139-0.263 0.093-0.485 0.211-0.668 0.353s-0.317 0.304-0.404 0.487c-0.087 0.183-0.112 0.363-0.080 0.542 0.020 0.113 0.062 0.222 0.125 0.329 0.063 0.105 0.174 0.213 0.334 0.323 0.16 0.109 0.383 0.222 0.672 0.338s0.672 0.233 1.15 0.353c0.491 0.126 0.905 0.267 1.24 0.423s0.604 0.333 0.807 0.532c0.202 0.198 0.342 0.416 0.418 0.652s0.101 0.496 0.075 0.779z"></path>
<path fill="#3f5b6f" style="fill: var(--color1, #3f5b6f)" d="M32.746 25.725c-0.027 0.259-0.116 0.497-0.269 0.715s-0.352 0.408-0.598 0.566c-0.246 0.158-0.532 0.283-0.857 0.372s-0.67 0.135-1.035 0.135c-1.396 0-2.343-0.731-2.758-1.402l0.599-0.315c0.389 0.58 1.194 1.448 2.159 1.448 0.644 0 1.154-0.126 1.53-0.378s0.572-0.573 0.593-0.965c0.013-0.178-0.006-0.334-0.055-0.468-0.049-0.132-0.153-0.255-0.309-0.368-0.156-0.112-0.376-0.22-0.658-0.323s-0.65-0.214-1.101-0.333c-0.525-0.139-0.966-0.29-1.325-0.452-0.359-0.163-0.644-0.343-0.857-0.542s-0.361-0.412-0.443-0.64c-0.083-0.229-0.111-0.476-0.084-0.74 0.020-0.265 0.102-0.508 0.25-0.73 0.146-0.222 0.337-0.416 0.572-0.581 0.236-0.165 0.512-0.293 0.828-0.382 0.315-0.090 0.652-0.135 1.011-0.135 0.565 0.013 1.055 0.108 1.47 0.283 0.415 0.176 0.785 0.459 1.111 0.85l-0.555 0.336c-0.273-0.344-0.597-0.68-0.906-0.888s-0.683-0.313-1.121-0.313c-0.313 0-0.6 0.046-0.862 0.139-0.263 0.093-0.485 0.211-0.668 0.353s-0.317 0.304-0.404 0.487-0.112 0.363-0.080 0.542c0.020 0.113 0.062 0.222 0.125 0.329 0.063 0.105 0.174 0.213 0.334 0.323s0.383 0.222 0.672 0.338c0.289 0.116 0.672 0.233 1.15 0.353 0.491 0.126 0.905 0.267 1.24 0.423s0.604 0.333 0.807 0.532c0.202 0.198 0.342 0.416 0.418 0.652 0.078 0.235 0.102 0.496 0.075 0.779z"></path>
<path fill="#3f5b6f" style="fill: var(--color1, #3f5b6f)" d="M40.571 23.897c0 0.53-0.093 1.020-0.279 1.471-0.187 0.451-0.442 0.841-0.767 1.173-0.325 0.331-0.711 0.59-1.156 0.775s-0.93 0.278-1.455 0.278-1.011-0.092-1.459-0.278c-0.448-0.186-0.837-0.444-1.166-0.775-0.328-0.331-0.586-0.722-0.772-1.173s-0.279-0.941-0.279-1.471 0.093-1.021 0.279-1.471c0.185-0.45 0.443-0.841 0.772-1.173 0.329-0.331 0.717-0.591 1.166-0.781 0.449-0.188 0.935-0.283 1.459-0.283s1.010 0.094 1.455 0.283c0.444 0.19 0.83 0.449 1.156 0.781 0.325 0.331 0.581 0.722 0.767 1.173 0.185 0.452 0.279 0.942 0.279 1.471zM39.586 23.898c-0.013-0.497-0.083-0.956-0.209-1.376s-0.303-0.785-0.533-1.093c-0.229-0.307-0.505-0.549-0.828-0.726-0.323-0.175-0.689-0.264-1.101-0.264-0.425-0.007-0.805 0.076-1.141 0.249-0.335 0.172-0.617 0.412-0.847 0.72-0.229 0.307-0.404 0.674-0.523 1.098s-0.179 0.888-0.179 1.392c0 0.483 0.060 0.934 0.179 1.351s0.295 0.779 0.523 1.088c0.229 0.307 0.512 0.552 0.847 0.73s0.716 0.271 1.141 0.278c0.439 0.007 0.827-0.076 1.166-0.248s0.621-0.413 0.847-0.721c0.226-0.307 0.395-0.674 0.508-1.098s0.161-0.884 0.149-1.381z"></path>
<path fill="#3f5b6f" style="fill: var(--color1, #3f5b6f)" d="M6.949 30.658c0.106-0.018 0.232-0.030 0.369-0.030 0.25 0 0.426 0.059 0.544 0.167 0.121 0.109 0.191 0.265 0.191 0.481 0 0.219-0.070 0.398-0.193 0.52-0.127 0.126-0.335 0.193-0.596 0.193-0.126 0-0.227-0.006-0.315-0.016v-1.315zM7.122 31.843c0.044 0.005 0.108 0.008 0.175 0.008 0.372 0 0.572-0.206 0.572-0.569 0.002-0.316-0.178-0.517-0.544-0.517-0.090 0-0.157 0.008-0.204 0.018v1.060z"></path>
<path fill="#3f5b6f" style="fill: var(--color1, #3f5b6f)" d="M10.085 31.349h-0.521v0.483h0.582v0.145h-0.758v-1.34h0.727v0.145h-0.552v0.424h0.521v0.143z"></path>
<path fill="#3f5b6f" style="fill: var(--color1, #3f5b6f)" d="M11.487 31.978v-1.34h0.191l0.428 0.677c0.098 0.157 0.178 0.298 0.239 0.435l0.006-0.002c-0.016-0.179-0.020-0.342-0.020-0.551v-0.561h0.163v1.34h-0.175l-0.426-0.68c-0.093-0.149-0.183-0.302-0.25-0.447l-0.006 0.002c0.010 0.169 0.012 0.33 0.012 0.553v0.573h-0.163z"></path>
<path fill="#3f5b6f" style="fill: var(--color1, #3f5b6f)" d="M14.168 30.785h-0.408v-0.147h0.994v0.147h-0.41v1.193h-0.175v-1.193z"></path>
<path fill="#3f5b6f" style="fill: var(--color1, #3f5b6f)" d="M16.086 31.557l-0.139 0.421h-0.18l0.459-1.34h0.207l0.459 1.34h-0.186l-0.144-0.421h-0.476zM16.529 31.421l-0.134-0.386c-0.030-0.087-0.049-0.167-0.070-0.244h-0.003c-0.020 0.077-0.039 0.161-0.067 0.242l-0.132 0.388h0.406z"></path>
<path fill="#3f5b6f" style="fill: var(--color1, #3f5b6f)" d="M18.203 30.639h0.175v1.194h0.575v0.145h-0.749v-1.339h-0.001z"></path>
<path fill="#3f5b6f" style="fill: var(--color1, #3f5b6f)" d="M22.734 31.936c-0.062 0.031-0.191 0.064-0.354 0.064-0.379 0-0.662-0.239-0.662-0.68 0-0.421 0.285-0.704 0.702-0.704 0.165 0 0.273 0.036 0.319 0.059l-0.044 0.141c-0.064-0.031-0.157-0.056-0.269-0.056-0.315 0-0.524 0.201-0.524 0.553 0 0.33 0.189 0.538 0.514 0.538 0.108 0 0.215-0.023 0.285-0.056l0.034 0.14z"></path>
<path fill="#3f5b6f" style="fill: var(--color1, #3f5b6f)" d="M24.067 30.639h0.175v1.194h0.575v0.145h-0.749v-1.339h-0.001z"></path>
<path fill="#3f5b6f" style="fill: var(--color1, #3f5b6f)" d="M26.299 30.639v1.34h-0.176v-1.34h0.176z"></path>
<path fill="#3f5b6f" style="fill: var(--color1, #3f5b6f)" d="M27.717 31.978v-1.34h0.191l0.428 0.677c0.098 0.157 0.178 0.298 0.24 0.435l0.005-0.002c-0.016-0.179-0.020-0.342-0.020-0.551v-0.561h0.163v1.34h-0.175l-0.426-0.68c-0.093-0.149-0.183-0.302-0.25-0.447l-0.006 0.002c0.010 0.169 0.012 0.33 0.012 0.553v0.573h-0.163z"></path>
<path fill="#3f5b6f" style="fill: var(--color1, #3f5b6f)" d="M30.317 30.639v1.34h-0.176v-1.34h0.176z"></path>
<path fill="#3f5b6f" style="fill: var(--color1, #3f5b6f)" d="M32.671 31.936c-0.062 0.031-0.191 0.064-0.355 0.064-0.379 0-0.661-0.239-0.661-0.68 0-0.421 0.284-0.704 0.701-0.704 0.165 0 0.273 0.036 0.319 0.059l-0.044 0.141c-0.064-0.031-0.157-0.056-0.269-0.056-0.315 0-0.524 0.201-0.524 0.553 0 0.33 0.189 0.538 0.514 0.538 0.108 0 0.215-0.023 0.284-0.056l0.034 0.14z"></path>
<path fill="#3f5b6f" style="fill: var(--color1, #3f5b6f)" d="M23.015 3.341c-0.227-0.487-0.555-0.904-0.987-1.248-0.431-0.344-0.955-0.606-1.569-0.783-0.615-0.179-1.311-0.268-2.089-0.268h-2.938v7.384c0.378 0 0.72-0.184 0.968-0.479 0.246-0.298 0.4-0.707 0.4-1.157v-5.421l1.512 0.018c1.316 0.011 2.285 0.338 2.909 0.98 0.624 0.644 0.932 1.551 0.922 2.722-0.039 1.16-0.362 2.068-0.973 2.722-0.61 0.654-1.539 0.98-2.788 0.98h-1.584v-0.003h-1.369v5.538h1.369v-5.171h1.571c0.777 0 1.473-0.095 2.087-0.285s1.138-0.462 1.57-0.819c0.432-0.357 0.761-0.79 0.986-1.3s0.338-1.092 0.338-1.748c0.003-0.619-0.11-1.173-0.336-1.661z"></path>
<path fill="#3f5b6f" style="fill: var(--color1, #3f5b6f)" d="M23.259 4.023c0-0.62-0.114-1.174-0.338-1.663-0.227-0.487-0.555-0.904-0.987-1.248-0.431-0.344-0.955-0.606-1.569-0.783-0.615-0.179-1.311-0.268-2.089-0.268h-5.458l-0.011 0.252h5.382c0.778 0 1.473 0.089 2.089 0.268 0.614 0.177 1.138 0.439 1.569 0.783 0.432 0.344 0.761 0.761 0.987 1.248 0.225 0.489 0.338 1.042 0.338 1.663 0 0.489-0.063 0.936-0.188 1.343 0.183-0.473 0.276-1.003 0.276-1.596z"></path>
<path fill="#3f5b6f" style="fill: var(--color1, #3f5b6f)" d="M17.092 8.791h-4.212v0.363h4.212v-0.363z"></path>
<path fill="#3f5b6f" style="fill: var(--color1, #3f5b6f)" d="M19.94 14.108l0.195 0.422 3.474 2.579 0.159-0.16-3.827-2.841zM28.884 12.12l-0.213-0.067-0.012-0.005-0.082-0.028-0.053-0.017-0.087-0.028-0.168-0.054-0.088-0.029-6.682-2.155-3.145 3.473 0.256 0.191 7.532 5.592 3.29-6.694-0.55-0.178zM28.439 13.818l-0.255 0.519-2.084 4.234v0.003l-0.038 0.078-0.274-0.204h-0.003l-7.094-5.27 2.882-3.184 0.187 0.058 0.001 0.001 7.363 2.375-0.684 1.388zM19.94 14.108l0.195 0.422 3.474 2.579 0.159-0.16-3.827-2.841z"></path>
<path fill="#3f5b6f" style="fill: var(--color1, #3f5b6f)" d="M28.891 12.13l-0.057 0.058-0.111 0.112-0.197 0.197-0.087 0.088-0.256 0.256-6.206 6.217-0.066-0.145-2.213-4.804 0.151-0.068 0.092 0.067 0.195 0.422 1.909 4.144 1.564-1.564 0.159-0.16 0.83-0.833 0.083-0.082 0.083-0.084 0.078-0.075v-0.002l3.774-3.783-0.037-0.071-0.052-0.096-0.087-0.158-0.169-0.31-0.088-0.162-0.831-1.529-2.62 0.323 2.739-0.57 0.039 0.073 0.76 1.4 0.169 0.308 0.087 0.16 0.325 0.599 0.034 0.062 0.007 0.010z"></path>
<path fill="#3f5b6f" style="fill: var(--color1, #3f5b6f)" d="M24.839 15.874l-0.053 0.123-0.029 0.071-0.076-0.035-0.161-0.069-5.907-2.564-0.19-0.142 0.069-0.154 0.235 0.101 5.957 2.588 0.080 0.156 0.075-0.075z"></path>
<path fill="#3f5b6f" style="fill: var(--color1, #3f5b6f)" d="M26.201 18.772l-0.199 0.101-0.217-0.426h-0.002l-1.078-2.122-0.107-0.209-0.078-0.152-0.157-0.311-2.925-5.739 0.198-0.102 0.121 0.24h0.002l3.005 5.897 0.023 0.048 0.082 0.16 1.23 2.413v0.002l0.102 0.198z"></path>
<path fill="#3f5b6f" style="fill: var(--color1, #3f5b6f)" d="M13.133 0.286v17.115h8.233c0-0.022-0-0.045 0.002-0.067h-8.167v-16.98h12.818v9.522c0.023-0.007 0.046-0.012 0.070-0.016v-9.574h-12.956z"></path>
<path fill="#3f5b6f" style="fill: var(--color1, #3f5b6f)" d="M12.791 0v17.684h8.625c-0.008-0.021-0.015-0.044-0.020-0.066h-8.534v-17.551h13.499v9.785c0.024 0.003 0.047 0.007 0.070 0.011v-9.863h-13.64z"></path>
</symbol>
</defs>
</svg>
