<svg>
<defs>
<symbol id="icon-BG-Circle" viewBox="0 0 32 32">
<path fill="#3f5b6f" style="fill: var(--color1, #3f5b6f)" d="M15.754 2.589l-0.129-0.012-0.129 0.005 0.052-2.004 0.525 0.014c0.285 0.007 0.482 0.048 0.589 0.121s0.159 0.2 0.154 0.379c-0.005 0.172-0.061 0.304-0.169 0.397-0.1 0.085-0.258 0.147-0.474 0.184-0.026 0.005-0.060 0.008-0.103 0.009s-0.067 0.001-0.073 0.001c-0.045-0.001-0.085-0.003-0.12-0.006s-0.068-0.006-0.099-0.008l-0.024 0.92zM15.781 1.554c0.006 0.002 0.032 0.004 0.079 0.005 0.018 0.002 0.036 0.004 0.056 0.004l0.059 0.002c0.016 0 0.031 0.001 0.047 0.001 0.024-0.003 0.040-0.005 0.050-0.005 0.145-0.010 0.26-0.057 0.344-0.141s0.128-0.191 0.132-0.322c0.003-0.106-0.020-0.191-0.070-0.257-0.055-0.074-0.117-0.115-0.187-0.122-0.070-0.010-0.126-0.015-0.167-0.016-0.039-0.001-0.070-0.002-0.094-0.002-0.043-0.001-0.083-0.001-0.12-0-0.037-0.001-0.072-0.002-0.105-0.003l-0.022 0.856z"></path>
<path fill="#3f5b6f" style="fill: var(--color1, #3f5b6f)" d="M18.003 0.725l0.126 0.028 0.129 0.010-0.295 1.983-0.126-0.028-0.129-0.010 0.295-1.983z"></path>
<path fill="#3f5b6f" style="fill: var(--color1, #3f5b6f)" d="M20.272 3.156c-0.099 0.032-0.206 0.044-0.322 0.037-0.117-0.006-0.232-0.025-0.346-0.059-0.308-0.090-0.523-0.252-0.646-0.485s-0.14-0.504-0.050-0.812c0.090-0.308 0.263-0.523 0.521-0.645 0.245-0.115 0.522-0.128 0.829-0.038 0.1 0.029 0.198 0.070 0.294 0.123 0.098 0.053 0.189 0.115 0.273 0.184-0.019 0.025-0.041 0.057-0.065 0.097-0.023 0.038-0.042 0.072-0.057 0.102l-0.021-0.003c-0.013-0.032-0.040-0.075-0.082-0.128-0.108-0.138-0.237-0.228-0.385-0.272-0.247-0.072-0.467-0.040-0.657 0.098-0.178 0.127-0.304 0.318-0.378 0.574-0.078 0.268-0.072 0.503 0.020 0.705s0.25 0.336 0.475 0.402c0.101 0.030 0.211 0.040 0.329 0.032 0.119-0.010 0.23-0.039 0.333-0.086l-0.066 0.173z"></path>
<path fill="#3f5b6f" style="fill: var(--color1, #3f5b6f)" d="M22.614 4.345l-0.132-0.077-0.142-0.063c0.029-0.211 0.049-0.383 0.061-0.515 0.008-0.084 0.016-0.194 0.023-0.33l-0.663-0.339c-0.229 0.201-0.359 0.316-0.389 0.344-0.062 0.056-0.138 0.133-0.229 0.229l-0.092-0.057-0.095-0.039 1.744-1.41 0.060 0.031-0.146 2.226zM22.492 2.413l-0.625 0.523 0.574 0.293 0.051-0.817z"></path>
<path fill="#3f5b6f" style="fill: var(--color1, #3f5b6f)" d="M23.562 4.46c-0.010 0.119-0.002 0.217 0.023 0.294 0.030 0.091 0.089 0.168 0.177 0.234 0.094 0.070 0.196 0.094 0.306 0.074 0.113-0.021 0.204-0.080 0.275-0.176 0.088-0.12 0.093-0.259 0.015-0.42-0.081-0.14-0.161-0.281-0.239-0.421-0.070-0.171-0.050-0.332 0.062-0.483 0.107-0.145 0.242-0.219 0.406-0.224 0.151-0.005 0.302 0.048 0.451 0.159 0.063 0.047 0.117 0.101 0.163 0.164s0.076 0.129 0.090 0.198c-0.030 0.017-0.056 0.034-0.081 0.050-0.005 0.004-0.047 0.036-0.126 0.096l-0.023-0.017c0.024-0.085 0.023-0.163-0.002-0.235-0.022-0.072-0.068-0.135-0.139-0.187-0.083-0.062-0.173-0.088-0.269-0.079-0.094 0.008-0.171 0.054-0.231 0.135-0.088 0.119-0.093 0.259-0.015 0.42 0.080 0.142 0.16 0.283 0.242 0.423 0.073 0.171 0.057 0.327-0.047 0.469-0.122 0.165-0.276 0.255-0.462 0.271-0.176 0.015-0.349-0.039-0.517-0.164-0.064-0.048-0.126-0.113-0.184-0.195s-0.091-0.158-0.099-0.226c0.038-0.025 0.070-0.050 0.096-0.075 0.028-0.025 0.063-0.059 0.104-0.102l0.023 0.017z"></path>
<path fill="#3f5b6f" style="fill: var(--color1, #3f5b6f)" d="M25.132 5.667c-0.027 0.116-0.033 0.215-0.019 0.295 0.017 0.094 0.065 0.179 0.143 0.256 0.083 0.082 0.181 0.121 0.293 0.116 0.115-0.005 0.214-0.050 0.297-0.135 0.104-0.106 0.129-0.244 0.074-0.413-0.060-0.15-0.119-0.301-0.177-0.451-0.045-0.179-0.002-0.336 0.129-0.47 0.126-0.128 0.271-0.183 0.434-0.165 0.151 0.017 0.292 0.091 0.424 0.221 0.055 0.055 0.102 0.117 0.138 0.186s0.057 0.139 0.062 0.209c-0.032 0.013-0.061 0.025-0.087 0.038-0.006 0.003-0.052 0.029-0.138 0.078l-0.021-0.021c0.035-0.080 0.046-0.158 0.031-0.233-0.012-0.075-0.049-0.143-0.111-0.205-0.074-0.073-0.159-0.112-0.256-0.116-0.094-0.005-0.176 0.029-0.248 0.101-0.104 0.106-0.129 0.244-0.074 0.413 0.059 0.152 0.119 0.303 0.179 0.453 0.048 0.179 0.011 0.332-0.113 0.457-0.144 0.146-0.309 0.214-0.496 0.203-0.177-0.010-0.34-0.088-0.488-0.235-0.057-0.056-0.109-0.129-0.155-0.219s-0.068-0.169-0.066-0.238c0.041-0.020 0.076-0.040 0.105-0.061 0.032-0.021 0.071-0.050 0.117-0.086l0.021 0.021z"></path>
<path fill="#3f5b6f" style="fill: var(--color1, #3f5b6f)" d="M28.496 7.631c0.034-0.112 0.041-0.226 0.020-0.342-0.020-0.115-0.065-0.222-0.134-0.321-0.146-0.21-0.335-0.325-0.567-0.345-0.229-0.019-0.467 0.057-0.712 0.228-0.236 0.164-0.377 0.357-0.422 0.579-0.041 0.207 0.003 0.406 0.135 0.595 0.157 0.226 0.377 0.334 0.659 0.323 0.22-0.008 0.42-0.074 0.598-0.198 0.109-0.076 0.198-0.153 0.267-0.232 0.071-0.080 0.123-0.176 0.157-0.288zM26.968 6.595c0.258-0.18 0.527-0.239 0.807-0.179 0.269 0.058 0.492 0.216 0.67 0.473 0.174 0.251 0.253 0.505 0.239 0.762-0.017 0.295-0.16 0.536-0.429 0.724-0.266 0.185-0.54 0.25-0.822 0.193-0.28-0.058-0.514-0.222-0.702-0.493-0.186-0.268-0.258-0.537-0.217-0.806 0.044-0.269 0.196-0.493 0.454-0.673z"></path>
<path fill="#3f5b6f" style="fill: var(--color1, #3f5b6f)" d="M28.635 11.137c0.017 0.056 0.038 0.131 0.063 0.226 0.027 0.094 0.040 0.142 0.041 0.144 0.033 0.107 0.064 0.192 0.094 0.256s0.070 0.123 0.121 0.174c0.115 0.12 0.257 0.191 0.427 0.212 0.151 0.019 0.318 0.001 0.501-0.056 0.295-0.091 0.483-0.221 0.564-0.391 0.083-0.169 0.076-0.412-0.021-0.73-0.012-0.039-0.034-0.105-0.067-0.197s-0.050-0.143-0.053-0.152l-1.67 0.513zM30.341 10.343l0.253 0.827c0.054 0.176 0.080 0.314 0.078 0.415-0.001 0.084-0.020 0.17-0.056 0.257-0.051 0.126-0.131 0.232-0.24 0.319-0.108 0.088-0.231 0.154-0.369 0.196-0.185 0.057-0.358 0.074-0.52 0.052-0.143-0.020-0.281-0.070-0.414-0.152-0.094-0.059-0.178-0.144-0.252-0.254-0.072-0.109-0.145-0.284-0.22-0.527l-0.167-0.547 1.908-0.586z"></path>
<path fill="#3f5b6f" style="fill: var(--color1, #3f5b6f)" d="M30.339 13.849l0.054 0.451c0.004 0.037 0.012 0.085 0.023 0.145 0.013 0.061 0.021 0.099 0.022 0.112l-0.077 0-0.080 0.018c-0.004-0.035-0.008-0.084-0.012-0.146-0.002-0.063-0.003-0.101-0.005-0.115l-0.054-0.451-0.85 0.102c0.008 0.062 0.022 0.163 0.042 0.302 0.021 0.141 0.032 0.216 0.033 0.223 0.007 0.054 0.012 0.094 0.017 0.119 0.007 0.025 0.021 0.073 0.041 0.146l-0.088 0.002-0.086 0.019-0.126-1.051 1.982-0.238 0.123 1.033-0.088 0.002-0.086 0.019c0.005-0.060 0.007-0.108 0.006-0.145 0.001-0.038-0-0.078-0.006-0.12l-0.029-0.292-0.027-0.224-0.73 0.088z"></path>
<path fill="#3f5b6f" style="fill: var(--color1, #3f5b6f)" d="M29.311 17.315l0.005-0.088 0.187-0.142 1.473-1.182 0.002-0.029-1.577-0.092 0.013-0.081-0.004-0.082 2.002 0.117-0.007 0.114-1.588 1.302-0.002 0.029 1.507 0.088-0.014 0.081 0.004 0.082-2.002-0.117z"></path>
<path fill="#3f5b6f" style="fill: var(--color1, #3f5b6f)" d="M28.986 19.171l0.040-0.123 0.023-0.127 1.815 0.453c0.037-0.148 0.061-0.254 0.073-0.317s0.028-0.168 0.048-0.314l0.083 0.030 0.087 0.013-0.365 1.468-0.083-0.030-0.087-0.013c0.025-0.068 0.055-0.155 0.089-0.262 0.034-0.104 0.065-0.212 0.093-0.324l-1.815-0.453z"></path>
<path fill="#3f5b6f" style="fill: var(--color1, #3f5b6f)" d="M28.076 21.805l0.067-0.137 0.052-0.147c0.213 0.013 0.385 0.021 0.518 0.024 0.084 0.002 0.195 0.001 0.331-0.001l0.288-0.687c-0.217-0.214-0.341-0.336-0.372-0.363-0.061-0.057-0.142-0.128-0.245-0.211l0.050-0.097 0.032-0.098 1.534 1.639-0.026 0.062-2.229 0.016zM29.992 21.543l-0.568-0.586-0.249 0.595 0.817-0.009z"></path>
<path fill="#3f5b6f" style="fill: var(--color1, #3f5b6f)" d="M27.661 22.885c-0.033 0.053-0.086 0.14-0.158 0.261-0.073 0.123-0.111 0.187-0.116 0.194-0.025 0.040-0.053 0.090-0.082 0.152-0.019 0.044-0.033 0.076-0.044 0.097l-0.070-0.055-0.079-0.040 0.569-0.902 1.687 1.068-0.076 0.105-0.061 0.114-1.57-0.994z"></path>
<path fill="#3f5b6f" style="fill: var(--color1, #3f5b6f)" d="M24.933 26.185c0.022-0.102 0.065-0.201 0.129-0.298 0.063-0.098 0.137-0.189 0.224-0.271 0.232-0.222 0.479-0.327 0.743-0.317s0.506 0.131 0.727 0.363c0.221 0.232 0.32 0.49 0.297 0.775-0.023 0.271-0.15 0.517-0.381 0.738-0.075 0.072-0.159 0.136-0.253 0.194-0.095 0.059-0.194 0.107-0.296 0.145-0.012-0.029-0.029-0.064-0.051-0.105-0.021-0.039-0.041-0.073-0.060-0.101l0.013-0.016c0.034 0.005 0.085 0.003 0.151-0.007 0.173-0.025 0.316-0.091 0.427-0.198 0.186-0.178 0.268-0.385 0.244-0.619-0.021-0.218-0.124-0.423-0.307-0.615-0.193-0.202-0.4-0.314-0.62-0.336s-0.415 0.049-0.585 0.211c-0.076 0.073-0.14 0.163-0.193 0.269-0.051 0.108-0.082 0.219-0.092 0.332l-0.117-0.144z"></path>
<path fill="#3f5b6f" style="fill: var(--color1, #3f5b6f)" d="M23.946 26.997c-0.052 0.035-0.135 0.094-0.249 0.177-0.116 0.084-0.177 0.128-0.183 0.132-0.039 0.026-0.084 0.062-0.136 0.107-0.034 0.033-0.061 0.057-0.079 0.072l-0.042-0.078-0.057-0.068 0.881-0.601 1.122 1.651-0.111 0.065-0.102 0.080-1.045-1.537z"></path>
<path fill="#3f5b6f" style="fill: var(--color1, #3f5b6f)" d="M23.336 29.575l-0.118 0.052-0.11 0.068-0.928-1.777 0.118-0.052 0.11-0.068 0.928 1.777z"></path>
<path fill="#3f5b6f" style="fill: var(--color1, #3f5b6f)" d="M19.855 28.878l0.083-0.029 0.202 0.119 1.652 0.914 0.028-0.009-0.512-1.495 0.081-0.018 0.075-0.035 0.65 1.897-0.108 0.037-1.806-0.975-0.028 0.010 0.489 1.428-0.080 0.018-0.075 0.035-0.65-1.897z"></path>
<path fill="#3f5b6f" style="fill: var(--color1, #3f5b6f)" d="M18.992 31.149l-0.128 0.014-0.125 0.032-0.359-1.973 0.128-0.014 0.125-0.032 0.359 1.973z"></path>
<path fill="#3f5b6f" style="fill: var(--color1, #3f5b6f)" d="M16.061 29.583c0.083-0.062 0.181-0.109 0.293-0.139 0.112-0.032 0.228-0.051 0.347-0.057 0.32-0.014 0.576 0.069 0.768 0.25s0.295 0.432 0.309 0.752c0.014 0.32-0.081 0.58-0.285 0.778-0.195 0.189-0.453 0.29-0.773 0.305-0.103 0.005-0.209-0.002-0.318-0.021-0.11-0.019-0.216-0.047-0.318-0.086 0.010-0.030 0.020-0.067 0.030-0.113 0.010-0.043 0.017-0.082 0.021-0.115l0.020-0.004c0.023 0.026 0.062 0.058 0.119 0.094 0.147 0.095 0.298 0.139 0.452 0.132 0.258-0.011 0.455-0.113 0.591-0.305 0.127-0.178 0.185-0.399 0.173-0.665-0.012-0.279-0.095-0.5-0.247-0.661s-0.345-0.237-0.579-0.226c-0.105 0.005-0.213 0.030-0.322 0.076-0.109 0.048-0.205 0.111-0.288 0.189l0.006-0.185z"></path>
<path fill="#3f5b6f" style="fill: var(--color1, #3f5b6f)" d="M12.603 30.054c0.030-0.135 0.102-0.24 0.217-0.315 0.112-0.073 0.236-0.095 0.372-0.064s0.241 0.103 0.318 0.218c0.074 0.117 0.096 0.243 0.066 0.378s-0.103 0.239-0.219 0.311c-0.118 0.074-0.245 0.096-0.381 0.065s-0.238-0.103-0.309-0.219c-0.073-0.114-0.094-0.239-0.064-0.375z"></path>
<path fill="#3f5b6f" style="fill: var(--color1, #3f5b6f)" d="M10.322 28.352l-0.26-0.135c-0.129-0.066-0.253-0.080-0.374-0.041-0.124 0.040-0.216 0.119-0.277 0.237-0.048 0.094-0.062 0.188-0.043 0.281 0.021 0.104 0.062 0.174 0.122 0.212 0.057 0.038 0.104 0.067 0.14 0.086 0.035 0.018 0.063 0.032 0.083 0.043 0.038 0.020 0.075 0.038 0.111 0.054 0.033 0.017 0.064 0.033 0.094 0.048l0.404-0.785zM9.693 30.138l-1.055-0.545c0.004-0.004 0.012-0.014 0.021-0.029 0.009-0.013 0.018-0.028 0.027-0.046l0.032-0.082c0.047 0.037 0.086 0.066 0.117 0.087 0.030 0.022 0.065 0.043 0.103 0.063l0.31 0.167 0.279 0.144 0.339-0.659-0.24-0.124c-0.252-0.13-0.412-0.258-0.482-0.384-0.072-0.125-0.066-0.268 0.017-0.43 0.081-0.158 0.202-0.26 0.361-0.305 0.157-0.044 0.323-0.021 0.498 0.069 0.076 0.040 0.164 0.083 0.262 0.132 0.097 0.050 0.205 0.106 0.323 0.167l-0.913 1.775z"></path>
<path fill="#3f5b6f" style="fill: var(--color1, #3f5b6f)" d="M7.455 28.878l-0.101-0.080-0.111-0.066 1.136-1.652 0.101 0.080 0.111 0.066-1.136 1.652z"></path>
<path fill="#3f5b6f" style="fill: var(--color1, #3f5b6f)" d="M7.72 26.631l0.075 0.079 0.085 0.064c-0.070 0.026-0.247 0.103-0.53 0.23-0.228 0.103-0.507 0.232-0.839 0.387s-0.536 0.255-0.613 0.301l-0.103-0.092c0.056-0.157 0.111-0.314 0.166-0.473 0.087-0.247 0.193-0.558 0.32-0.933 0.122-0.358 0.193-0.577 0.213-0.659l0.099 0.1 0.113 0.089-0.624 1.702 0.020 0.018c0.311-0.141 0.608-0.282 0.891-0.423 0.281-0.142 0.524-0.273 0.729-0.391z"></path>
<path fill="#3f5b6f" style="fill: var(--color1, #3f5b6f)" d="M5.664 24.813l-0.179-0.229c-0.1-0.105-0.209-0.164-0.327-0.176s-0.229 0.023-0.332 0.104c-0.086 0.067-0.141 0.143-0.165 0.226-0.027 0.096-0.021 0.173 0.018 0.232 0.036 0.059 0.067 0.104 0.092 0.137 0.024 0.031 0.043 0.055 0.058 0.074 0.026 0.034 0.052 0.065 0.076 0.093 0.023 0.029 0.045 0.057 0.065 0.083l0.694-0.544zM4.88 25.429l-0.164-0.21c-0.172-0.22-0.262-0.398-0.269-0.534-0.008-0.137 0.059-0.262 0.202-0.375 0.135-0.106 0.273-0.147 0.413-0.123 0.129 0.023 0.277 0.105 0.443 0.248 0.023 0.020 0.063 0.065 0.121 0.136 0.057 0.070 0.090 0.111 0.1 0.123l0.063 0.081 0.025 0.032 0.020 0.025c0.019 0.025 0.035 0.047 0.048 0.067 0.013 0.017 0.025 0.032 0.034 0.044l-1.571 1.232-0.072-0.107-0.086-0.096 0.692-0.543z"></path>
<path fill="#3f5b6f" style="fill: var(--color1, #3f5b6f)" d="M4.066 22.532l-1.664 0.827-0.049-0.119c-0.025-0.051-0.047-0.088-0.065-0.112l1.664-0.827-0.14-0.303-0.148-0.28-1.664 0.827-0.049-0.119-0.065-0.112 1.795-0.892 0.921 1.86-1.795 0.892-0.049-0.119-0.065-0.112 1.664-0.827-0.133-0.288-0.156-0.296z"></path>
<path fill="#3f5b6f" style="fill: var(--color1, #3f5b6f)" d="M2.076 20.294l-0.12-0.438c-0.010-0.036-0.025-0.082-0.044-0.14-0.022-0.059-0.035-0.095-0.039-0.108l0.076-0.012 0.077-0.030c0.009 0.034 0.020 0.082 0.033 0.143 0.011 0.062 0.018 0.099 0.022 0.113l0.12 0.438 0.826-0.226c-0.016-0.060-0.045-0.158-0.086-0.293-0.041-0.137-0.063-0.209-0.065-0.216-0.014-0.053-0.026-0.091-0.034-0.115-0.010-0.023-0.031-0.070-0.062-0.138l0.087-0.015 0.083-0.032 0.279 1.021-1.925 0.527-0.274-1.004 0.087-0.015 0.083-0.032c0.004 0.060 0.009 0.108 0.015 0.145 0.004 0.038 0.012 0.077 0.023 0.118l0.072 0.284 0.059 0.218 0.71-0.194z"></path>
<path fill="#3f5b6f" style="fill: var(--color1, #3f5b6f)" d="M0.57 15.534l2.005-0.005-0.008 0.129 0.009 0.129-1.858 0.005-0.007 0.616 0.010 0.619 1.858-0.005-0.008 0.129 0.009 0.129-2.005 0.005-0.005-1.75z"></path>
<path fill="#3f5b6f" style="fill: var(--color1, #3f5b6f)" d="M2.7 14.109l-0.032 0.125-0.015 0.128-1.971-0.369 0.096-0.516c0.052-0.28 0.123-0.468 0.212-0.563s0.222-0.125 0.399-0.092c0.169 0.032 0.291 0.108 0.366 0.23 0.069 0.112 0.104 0.278 0.107 0.497 0.001 0.026-0.001 0.060-0.007 0.103s-0.010 0.067-0.011 0.073c-0.008 0.044-0.017 0.083-0.025 0.118s-0.016 0.066-0.024 0.097l0.905 0.169zM1.682 13.918c0.003-0.005 0.009-0.031 0.017-0.077 0.005-0.017 0.010-0.035 0.013-0.054l0.011-0.058c0.003-0.015 0.006-0.031 0.009-0.046 0-0.024 0.002-0.040 0.003-0.050 0.013-0.145-0.015-0.265-0.085-0.362s-0.169-0.157-0.297-0.181c-0.104-0.019-0.192-0.010-0.265 0.028-0.081 0.042-0.132 0.098-0.15 0.166-0.021 0.068-0.035 0.122-0.042 0.162-0.007 0.038-0.013 0.069-0.017 0.092-0.008 0.042-0.014 0.082-0.019 0.119-0.007 0.037-0.013 0.071-0.019 0.104l0.841 0.158z"></path>
<path fill="#3f5b6f" style="fill: var(--color1, #3f5b6f)" d="M2.056 12.024c-0.292-0.117-0.49-0.309-0.594-0.576-0.099-0.257-0.091-0.53 0.025-0.821 0.113-0.283 0.281-0.49 0.503-0.619 0.255-0.148 0.535-0.161 0.84-0.039 0.301 0.121 0.506 0.314 0.614 0.581 0.106 0.266 0.098 0.552-0.024 0.859-0.121 0.303-0.305 0.511-0.553 0.625-0.248 0.111-0.519 0.108-0.811-0.009zM2.078 10.176c-0.112 0.033-0.211 0.090-0.296 0.172-0.085 0.080-0.149 0.176-0.194 0.288-0.095 0.238-0.087 0.459 0.025 0.664 0.111 0.202 0.305 0.359 0.582 0.47 0.267 0.107 0.505 0.118 0.716 0.034 0.196-0.079 0.337-0.226 0.422-0.44 0.102-0.256 0.071-0.499-0.094-0.729-0.128-0.18-0.293-0.31-0.494-0.391-0.123-0.049-0.237-0.081-0.341-0.095-0.106-0.015-0.214-0.006-0.326 0.027z"></path>
<path fill="#3f5b6f" style="fill: var(--color1, #3f5b6f)" d="M4.253 6.007l0.089-0.094 0.075-0.105 1.546 1.277-0.089 0.094-0.075 0.105-0.777-0.642c-0.061 0.074-0.111 0.133-0.149 0.177-0.155 0.176-0.239 0.272-0.253 0.289-0.060 0.072-0.134 0.167-0.222 0.284-0.090 0.116-0.143 0.183-0.159 0.203l0.777 0.642-0.089 0.094-0.075 0.105-1.546-1.277 0.089-0.094 0.075-0.105 0.648 0.536c0.062-0.075 0.142-0.168 0.24-0.277 0.097-0.112 0.152-0.176 0.165-0.191 0.060-0.072 0.107-0.132 0.143-0.178 0.143-0.186 0.222-0.288 0.237-0.306l-0.649-0.536z"></path>
<path fill="#3f5b6f" style="fill: var(--color1, #3f5b6f)" d="M7.998 5.214l-0.123 0.090-0.115 0.105c-0.182-0.111-0.33-0.199-0.446-0.264-0.074-0.041-0.171-0.092-0.293-0.154l-0.576 0.472c0.091 0.291 0.144 0.457 0.158 0.495 0.027 0.079 0.066 0.18 0.117 0.302l-0.089 0.062-0.074 0.072-0.588-2.167 0.052-0.043 1.976 1.030zM6.184 4.548l0.227 0.784 0.499-0.409-0.726-0.375z"></path>
<path fill="#3f5b6f" style="fill: var(--color1, #3f5b6f)" d="M9.87 3.909c-0.047 0.093-0.114 0.178-0.2 0.255-0.086 0.079-0.181 0.147-0.285 0.205-0.28 0.155-0.547 0.195-0.799 0.118s-0.456-0.255-0.611-0.536c-0.155-0.28-0.185-0.555-0.091-0.825 0.091-0.256 0.276-0.462 0.557-0.617 0.091-0.050 0.189-0.091 0.294-0.123 0.107-0.033 0.215-0.054 0.322-0.065 0.004 0.031 0.012 0.070 0.023 0.115 0.011 0.043 0.021 0.081 0.032 0.113l-0.017 0.013c-0.032-0.014-0.081-0.024-0.148-0.032-0.174-0.020-0.328 0.008-0.463 0.083-0.226 0.125-0.357 0.304-0.393 0.537-0.035 0.216 0.012 0.44 0.141 0.673 0.135 0.245 0.307 0.405 0.514 0.482s0.414 0.059 0.619-0.055c0.092-0.051 0.177-0.122 0.255-0.212 0.077-0.092 0.135-0.191 0.174-0.298l0.076 0.169z"></path>
<path fill="#3f5b6f" style="fill: var(--color1, #3f5b6f)" d="M12.757 1.951c0.033 0.135 0.014 0.261-0.055 0.379-0.068 0.115-0.17 0.189-0.305 0.223s-0.262 0.015-0.381-0.054c-0.118-0.072-0.194-0.175-0.226-0.31s-0.013-0.26 0.059-0.377c0.074-0.119 0.178-0.194 0.313-0.227s0.259-0.013 0.374 0.059c0.116 0.070 0.19 0.173 0.223 0.308z"></path>
</symbol>
</defs>
</svg>