<svg aria-hidden="true" style="position: absolute; width: 0; height: 0; overflow: hidden;" version="1.1" xmlns="http://www.w3.org/2000/svg" xmlns:xlink="http://www.w3.org/1999/xlink">
<defs>
<symbol id="modal_close" viewBox="0 0 32 32">
<path d="M25.354 24.646c0.094 0.094 0.147 0.221 0.147 0.354s-0.053 0.26-0.147 0.354c-0.094 0.094-0.221 0.146-0.354 0.146s-0.26-0.053-0.354-0.146l-8.646-8.646-8.646 8.646c-0.094 0.094-0.221 0.146-0.354 0.146s-0.26-0.053-0.354-0.146c-0.094-0.094-0.147-0.221-0.147-0.354s0.053-0.26 0.147-0.354l8.646-8.646-8.646-8.646c-0.094-0.094-0.147-0.221-0.147-0.354s0.053-0.26 0.147-0.354c0.094-0.094 0.221-0.147 0.354-0.147s0.26 0.053 0.354 0.147l8.646 8.646 8.646-8.646c0.046-0.046 0.102-0.083 0.162-0.108s0.126-0.038 0.191-0.038c0.066 0 0.131 0.013 0.191 0.038s0.116 0.062 0.162 0.108c0.046 0.046 0.083 0.102 0.108 0.162s0.038 0.126 0.038 0.191-0.013 0.131-0.038 0.191c-0.025 0.061-0.062 0.116-0.108 0.162l-8.646 8.646 8.646 8.646z"></path>
</symbol>
<symbol id="icon-file" viewBox="0 0 33 32">
<path  d="M28.499 10.67l-8-7.84c-0.053-0.052-0.116-0.093-0.185-0.121s-0.144-0.043-0.219-0.042h-13.714c-0.455 0-0.891 0.177-1.212 0.492s-0.502 0.742-0.502 1.188v24.64c0 0.446 0.181 0.873 0.502 1.188s0.758 0.492 1.212 0.492h20.571c0.455 0 0.891-0.177 1.212-0.492s0.502-0.742 0.502-1.188v-17.92c0-0.074-0.015-0.146-0.043-0.214s-0.071-0.13-0.124-0.182zM20.667 4.578l6.049 5.929h-6.049v-5.929zM26.952 29.547h-20.571c-0.152 0-0.297-0.059-0.404-0.164s-0.167-0.247-0.167-0.396v-24.64c0-0.149 0.060-0.291 0.167-0.396s0.253-0.164 0.404-0.164h13.143v7.28c0 0.149 0.060 0.291 0.167 0.396s0.253 0.164 0.404 0.164h7.429v17.36c0 0.149-0.060 0.291-0.167 0.396s-0.253 0.164-0.404 0.164z"></path>
</symbol>
<symbol id="icon-StateNone" viewBox="0 0 32 32">
<path fill="none"  stroke-linejoin="round" stroke-linecap="butt" stroke-miterlimit="4" stroke-width="2" d="M25 4h-18c-1.657 0-3 1.343-3 3v18c0 1.657 1.343 3 3 3h18c1.657 0 3-1.343 3-3v-18c0-1.657-1.343-3-3-3z"></path>
</symbol>
<symbol id="icon-StateDone" viewBox="0 0 32 32">
<path fill="none"  stroke-linejoin="round" stroke-linecap="round" stroke-miterlimit="4" stroke-width="2" d="M22 11l-8.4 10-3.6-4"></path>
<path fill="none"  stroke-linejoin="round" stroke-linecap="butt" stroke-miterlimit="4" stroke-width="2" d="M25 4h-18c-1.657 0-3 1.343-3 3v18c0 1.657 1.343 3 3 3h18c1.657 0 3-1.343 3-3v-18c0-1.657-1.343-3-3-3z"></path>
</symbol>
</defs>
</svg>
