<svg aria-hidden="true" style="position: absolute; width: 0; height: 0; overflow: hidden;" version="1.1" xmlns="http://www.w3.org/2000/svg" xmlns:xlink="http://www.w3.org/1999/xlink">
<defs>
<symbol id="portfolio-icon" viewBox="0 0 31 32">
<path fill="#e2ecf2" style="fill: var(--color1, #e2ecf2)" d="M23.028 7.985l-0.061-0.067-0.070-0.058 0.97-1.015 0.266 0.254c0.144 0.138 0.227 0.251 0.249 0.34s-0.011 0.178-0.098 0.269c-0.083 0.087-0.175 0.129-0.274 0.127-0.092-0.003-0.203-0.045-0.332-0.127-0.016-0.009-0.035-0.024-0.058-0.044s-0.036-0.031-0.039-0.034c-0.023-0.022-0.043-0.042-0.059-0.060s-0.033-0.035-0.048-0.051l-0.445 0.466zM23.528 7.461c0.002 0.004 0.015 0.017 0.039 0.040 0.008 0.009 0.017 0.019 0.027 0.028l0.030 0.028c0.008 0.008 0.016 0.015 0.024 0.023 0.014 0.009 0.023 0.016 0.028 0.021 0.080 0.063 0.161 0.093 0.244 0.089s0.156-0.039 0.22-0.105c0.051-0.053 0.079-0.109 0.085-0.166 0.006-0.064-0.007-0.115-0.040-0.152s-0.058-0.067-0.079-0.087c-0.020-0.019-0.036-0.034-0.047-0.045-0.022-0.021-0.043-0.040-0.062-0.057-0.019-0.018-0.037-0.035-0.053-0.051l-0.414 0.433z"></path>
<path fill="#e2ecf2" style="fill: var(--color1, #e2ecf2)" d="M25.026 8.016l0.053 0.073 0.063 0.065-1.074 0.904-0.053-0.073-0.063-0.065 1.074-0.904z"></path>
<path fill="#e2ecf2" style="fill: var(--color1, #e2ecf2)" d="M25.052 10.262c-0.067-0.028-0.13-0.071-0.188-0.127-0.059-0.056-0.112-0.119-0.157-0.189-0.122-0.188-0.163-0.372-0.122-0.553s0.156-0.331 0.344-0.454c0.188-0.122 0.378-0.157 0.571-0.104 0.183 0.051 0.336 0.17 0.458 0.358 0.040 0.061 0.073 0.127 0.1 0.199 0.028 0.073 0.048 0.147 0.061 0.222-0.022 0.004-0.048 0.012-0.079 0.022-0.030 0.009-0.055 0.019-0.077 0.028l-0.010-0.011c0.008-0.023 0.013-0.058 0.015-0.105 0.005-0.123-0.022-0.229-0.081-0.32-0.098-0.151-0.23-0.234-0.394-0.248-0.152-0.014-0.307 0.030-0.463 0.132-0.164 0.107-0.268 0.234-0.311 0.383s-0.021 0.292 0.069 0.43c0.040 0.062 0.094 0.118 0.16 0.168 0.068 0.049 0.14 0.085 0.216 0.107l-0.114 0.062z"></path>
<path fill="#e2ecf2" style="fill: var(--color1, #e2ecf2)" d="M25.757 11.913l-0.036-0.101-0.048-0.098c0.11-0.101 0.198-0.183 0.264-0.249 0.042-0.042 0.095-0.097 0.161-0.167l-0.204-0.48c-0.214 0.005-0.335 0.008-0.364 0.010-0.058 0.002-0.134 0.009-0.226 0.020l-0.024-0.072-0.034-0.064 1.571 0.027 0.018 0.043-1.079 1.128zM26.56 10.822l-0.571-0 0.177 0.415 0.394-0.415z"></path>
<path fill="#e2ecf2" style="fill: var(--color1, #e2ecf2)" d="M26.209 12.354c-0.058 0.060-0.097 0.117-0.118 0.17-0.024 0.062-0.026 0.131-0.007 0.205 0.020 0.080 0.065 0.138 0.134 0.176 0.071 0.038 0.146 0.047 0.227 0.027 0.101-0.026 0.165-0.099 0.194-0.221 0.018-0.112 0.037-0.223 0.057-0.334 0.038-0.124 0.12-0.202 0.247-0.235 0.122-0.031 0.229-0.012 0.32 0.058 0.084 0.065 0.142 0.16 0.175 0.286 0.014 0.053 0.019 0.107 0.016 0.161s-0.016 0.104-0.039 0.148c-0.024-0.004-0.045-0.007-0.066-0.009-0.004-0-0.041-0.001-0.111-0.003l-0.005-0.020c0.050-0.035 0.085-0.078 0.103-0.128 0.020-0.049 0.022-0.103 0.007-0.163-0.018-0.070-0.055-0.124-0.111-0.162-0.055-0.037-0.116-0.047-0.185-0.029-0.101 0.026-0.165 0.099-0.194 0.221-0.019 0.112-0.038 0.224-0.056 0.336-0.036 0.125-0.113 0.203-0.233 0.233-0.139 0.036-0.263 0.016-0.371-0.058-0.103-0.070-0.172-0.176-0.208-0.318-0.014-0.054-0.018-0.117-0.014-0.187s0.020-0.126 0.046-0.166c0.032 0.003 0.060 0.004 0.085 0.002 0.027-0.001 0.060-0.004 0.102-0.009l0.005 0.020z"></path>
<path fill="#e2ecf2" style="fill: var(--color1, #e2ecf2)" d="M26.521 13.637c-0.065 0.052-0.112 0.103-0.139 0.153-0.031 0.059-0.043 0.126-0.033 0.202 0.010 0.082 0.047 0.145 0.11 0.191 0.065 0.047 0.139 0.066 0.222 0.056 0.103-0.012 0.177-0.077 0.221-0.194 0.032-0.109 0.065-0.217 0.099-0.324 0.053-0.118 0.145-0.185 0.276-0.201 0.125-0.015 0.228 0.018 0.31 0.099 0.075 0.075 0.121 0.177 0.136 0.306 0.007 0.054 0.005 0.108-0.005 0.162s-0.029 0.101-0.057 0.141c-0.023-0.007-0.044-0.013-0.064-0.017-0.004-0.001-0.041-0.007-0.11-0.018l-0.002-0.020c0.054-0.029 0.094-0.066 0.119-0.114 0.026-0.046 0.036-0.099 0.028-0.161-0.009-0.072-0.038-0.13-0.089-0.175-0.049-0.044-0.109-0.061-0.18-0.053-0.103 0.012-0.177 0.077-0.221 0.194-0.034 0.109-0.067 0.218-0.099 0.326-0.052 0.119-0.139 0.186-0.261 0.201-0.143 0.017-0.263-0.018-0.36-0.105-0.093-0.083-0.148-0.197-0.165-0.342-0.007-0.056-0.003-0.118 0.010-0.187s0.036-0.122 0.068-0.159c0.031 0.007 0.059 0.011 0.084 0.013 0.026 0.002 0.060 0.004 0.102 0.004l0.002 0.020z"></path>
<path fill="#e2ecf2" style="fill: var(--color1, #e2ecf2)" d="M27.532 16.101c0.067-0.047 0.119-0.108 0.157-0.181 0.038-0.072 0.059-0.15 0.063-0.235 0.009-0.179-0.047-0.324-0.167-0.434-0.119-0.109-0.283-0.169-0.492-0.179-0.201-0.010-0.361 0.036-0.482 0.14-0.112 0.097-0.172 0.226-0.18 0.387-0.010 0.193 0.066 0.347 0.227 0.462 0.126 0.090 0.264 0.139 0.416 0.146 0.093 0.005 0.175 0 0.247-0.014 0.073-0.014 0.143-0.045 0.21-0.092zM27.128 14.872c0.22 0.011 0.395 0.093 0.524 0.247 0.124 0.147 0.181 0.33 0.169 0.549-0.011 0.213-0.075 0.388-0.193 0.524-0.135 0.156-0.318 0.228-0.547 0.217-0.227-0.012-0.406-0.093-0.538-0.245-0.131-0.152-0.19-0.343-0.178-0.574 0.012-0.228 0.086-0.408 0.225-0.539 0.14-0.13 0.319-0.189 0.539-0.178z"></path>
<path fill="#e2ecf2" style="fill: var(--color1, #e2ecf2)" d="M26.168 17.997c-0.013 0.039-0.033 0.090-0.058 0.154-0.024 0.064-0.036 0.097-0.036 0.098-0.026 0.074-0.043 0.135-0.053 0.184s-0.011 0.098-0.004 0.149c0.015 0.115 0.066 0.214 0.153 0.297 0.077 0.073 0.179 0.132 0.306 0.176 0.204 0.071 0.364 0.075 0.48 0.013 0.117-0.061 0.213-0.201 0.29-0.421 0.009-0.027 0.024-0.073 0.044-0.139s0.031-0.102 0.033-0.108l-1.155-0.401zM27.46 18.255l-0.199 0.572c-0.042 0.122-0.085 0.21-0.127 0.266-0.035 0.047-0.081 0.088-0.138 0.122-0.081 0.050-0.17 0.077-0.267 0.081-0.097 0.005-0.194-0.009-0.29-0.042-0.128-0.044-0.233-0.106-0.316-0.186-0.073-0.070-0.13-0.156-0.171-0.257-0.029-0.072-0.041-0.155-0.038-0.248 0.004-0.091 0.035-0.221 0.094-0.389l0.131-0.378 1.32 0.459z"></path>
<path fill="#e2ecf2" style="fill: var(--color1, #e2ecf2)" d="M26.040 20.201l-0.153 0.279c-0.012 0.023-0.028 0.053-0.046 0.092-0.017 0.040-0.028 0.065-0.033 0.073l-0.044-0.031-0.053-0.022c0.012-0.022 0.029-0.051 0.053-0.088 0.025-0.036 0.039-0.059 0.044-0.067l0.153-0.279-0.526-0.288c-0.021 0.038-0.054 0.102-0.099 0.189-0.046 0.089-0.070 0.136-0.072 0.141-0.018 0.034-0.031 0.059-0.039 0.075-0.006 0.017-0.018 0.050-0.036 0.1l-0.051-0.035-0.057-0.024 0.355-0.65 1.226 0.671-0.35 0.639-0.051-0.035-0.057-0.024c0.027-0.032 0.048-0.059 0.063-0.080 0.016-0.021 0.031-0.044 0.046-0.071l0.102-0.178 0.076-0.139-0.452-0.247z"></path>
<path fill="#e2ecf2" style="fill: var(--color1, #e2ecf2)" d="M24.095 21.72l0.038-0.048 0.164-0.007 1.319-0.091 0.013-0.016-0.87-0.683 0.040-0.041 0.031-0.049 1.104 0.867-0.049 0.063-1.433 0.114-0.013 0.016 0.831 0.653-0.040 0.041-0.031 0.049-1.104-0.867z"></path>
<path fill="#e2ecf2" style="fill: var(--color1, #e2ecf2)" d="M23.201 22.647l0.071-0.056 0.063-0.065 0.876 0.973c0.079-0.071 0.135-0.123 0.167-0.156s0.082-0.087 0.151-0.164l0.037 0.050 0.046 0.042-0.787 0.709-0.037-0.050-0.046-0.042c0.041-0.030 0.093-0.069 0.154-0.117 0.061-0.047 0.121-0.098 0.181-0.152l-0.876-0.973z"></path>
<path fill="#e2ecf2" style="fill: var(--color1, #e2ecf2)" d="M21.706 23.794l0.092-0.055 0.087-0.066c0.12 0.089 0.218 0.16 0.294 0.212 0.049 0.033 0.114 0.075 0.194 0.126l0.432-0.292c-0.045-0.209-0.072-0.327-0.079-0.355-0.014-0.057-0.035-0.129-0.063-0.218l0.066-0.037 0.056-0.045 0.272 1.547-0.039 0.026-1.313-0.845zM22.93 24.375l-0.108-0.561-0.374 0.253 0.483 0.308z"></path>
<path fill="#e2ecf2" style="fill: var(--color1, #e2ecf2)" d="M21.093 24.255c-0.040 0.019-0.103 0.050-0.191 0.095-0.089 0.045-0.136 0.069-0.141 0.071-0.030 0.014-0.065 0.034-0.106 0.059-0.027 0.019-0.048 0.033-0.062 0.041l-0.021-0.058-0.032-0.053 0.676-0.319 0.597 1.264-0.084 0.033-0.079 0.044-0.556-1.177z"></path>
<path fill="#e2ecf2" style="fill: var(--color1, #e2ecf2)" d="M18.404 25.168c0.050-0.053 0.111-0.097 0.185-0.132 0.073-0.036 0.151-0.063 0.232-0.081 0.219-0.049 0.406-0.022 0.56 0.079s0.256 0.262 0.305 0.481c0.049 0.219 0.015 0.41-0.102 0.572-0.111 0.154-0.277 0.255-0.496 0.304-0.071 0.016-0.145 0.024-0.222 0.024-0.078 0.001-0.155-0.006-0.23-0.020 0.004-0.022 0.006-0.049 0.007-0.081 0.001-0.031 0.002-0.059 0.001-0.082l0.014-0.005c0.019 0.015 0.050 0.032 0.093 0.051 0.113 0.048 0.222 0.060 0.328 0.036 0.176-0.039 0.3-0.133 0.37-0.282 0.066-0.138 0.079-0.298 0.038-0.48-0.043-0.191-0.126-0.333-0.251-0.426s-0.267-0.121-0.427-0.086c-0.072 0.016-0.143 0.047-0.213 0.092-0.070 0.046-0.128 0.101-0.175 0.165l-0.018-0.128z"></path>
<path fill="#e2ecf2" style="fill: var(--color1, #e2ecf2)" d="M17.571 25.303c-0.044 0.003-0.115 0.008-0.213 0.017-0.099 0.009-0.152 0.013-0.157 0.014-0.033 0.002-0.073 0.007-0.12 0.016-0.032 0.007-0.057 0.012-0.073 0.015l0.002-0.062-0.010-0.061 0.746-0.046 0.085 1.395-0.090-0.001-0.090 0.012-0.080-1.299z"></path>
<path fill="#e2ecf2" style="fill: var(--color1, #e2ecf2)" d="M16.364 26.65l-0.090-0.009-0.090 0.003 0.045-1.403 0.090 0.009 0.090-0.003-0.045 1.403z"></path>
<path fill="#e2ecf2" style="fill: var(--color1, #e2ecf2)" d="M14.566 25.053l0.061 0.010 0.084 0.141 0.708 1.117 0.020 0.003 0.187-1.090 0.056 0.016 0.058 0.004-0.237 1.384-0.079-0.014-0.782-1.207-0.020-0.003-0.179 1.042-0.056-0.016-0.058-0.004 0.237-1.384z"></path>
<path fill="#e2ecf2" style="fill: var(--color1, #e2ecf2)" d="M13.315 26.182l-0.084-0.033-0.088-0.022 0.426-1.338 0.084 0.033 0.088 0.022-0.426 1.338z"></path>
<path fill="#e2ecf2" style="fill: var(--color1, #e2ecf2)" d="M12.096 24.295c0.072-0.012 0.148-0.010 0.227 0.008 0.080 0.016 0.158 0.041 0.234 0.076 0.204 0.094 0.336 0.228 0.397 0.403s0.045 0.363-0.049 0.567c-0.094 0.204-0.236 0.335-0.427 0.393-0.182 0.055-0.375 0.035-0.579-0.059-0.066-0.030-0.129-0.069-0.191-0.115-0.063-0.047-0.119-0.099-0.17-0.155 0.016-0.015 0.034-0.035 0.055-0.061 0.020-0.024 0.037-0.046 0.050-0.065l0.014 0.004c0.006 0.024 0.020 0.056 0.043 0.097 0.061 0.106 0.14 0.182 0.239 0.228 0.164 0.076 0.319 0.076 0.466 0 0.136-0.070 0.243-0.189 0.321-0.358 0.082-0.178 0.102-0.341 0.059-0.49s-0.139-0.258-0.288-0.327c-0.067-0.031-0.142-0.050-0.225-0.056-0.083-0.005-0.163 0.003-0.24 0.025l0.063-0.113z"></path>
<path fill="#e2ecf2" style="fill: var(--color1, #e2ecf2)" d="M9.893 23.595c0.060-0.076 0.138-0.12 0.233-0.132 0.093-0.012 0.178 0.012 0.254 0.073s0.121 0.138 0.134 0.234c0.011 0.096-0.013 0.182-0.074 0.258s-0.138 0.119-0.233 0.129c-0.097 0.010-0.184-0.015-0.26-0.075s-0.119-0.138-0.128-0.232c-0.011-0.094 0.014-0.179 0.074-0.255z"></path>
<path fill="#e2ecf2" style="fill: var(--color1, #e2ecf2)" d="M7.376 21.933l1.119-0.848 0.050 0.076 0.059 0.068-1.037 0.786 0.255 0.347 0.266 0.341 1.037-0.786 0.050 0.076 0.059 0.068-1.119 0.848-0.74-0.976z"></path>
<path fill="#e2ecf2" style="fill: var(--color1, #e2ecf2)" d="M7.454 20.867c-0.199 0.094-0.392 0.104-0.578 0.029-0.179-0.072-0.315-0.206-0.408-0.405-0.091-0.193-0.116-0.378-0.077-0.554 0.046-0.202 0.173-0.351 0.381-0.449 0.206-0.097 0.402-0.109 0.59-0.037 0.187 0.072 0.329 0.213 0.428 0.422 0.097 0.207 0.116 0.401 0.056 0.582-0.062 0.18-0.192 0.317-0.392 0.411zM6.519 19.973c-0.037 0.073-0.054 0.151-0.053 0.234 0 0.081 0.019 0.16 0.055 0.237 0.076 0.162 0.194 0.264 0.352 0.304 0.156 0.040 0.329 0.015 0.519-0.074 0.182-0.086 0.302-0.202 0.359-0.35 0.053-0.138 0.045-0.28-0.024-0.427-0.082-0.175-0.221-0.275-0.418-0.3-0.153-0.020-0.298 0.002-0.436 0.067-0.084 0.040-0.155 0.083-0.212 0.129-0.058 0.047-0.105 0.107-0.142 0.18z"></path>
<path fill="#e2ecf2" style="fill: var(--color1, #e2ecf2)" d="M7.13 18.332l0.017 0.089 0.029 0.086-1.358 0.356-0.093-0.355c-0.051-0.193-0.062-0.333-0.034-0.42s0.103-0.146 0.225-0.178c0.116-0.030 0.216-0.018 0.3 0.036 0.077 0.051 0.149 0.145 0.216 0.283 0.008 0.016 0.017 0.039 0.026 0.067s0.014 0.045 0.015 0.049c0.008 0.030 0.014 0.058 0.019 0.082s0.010 0.047 0.014 0.069l0.623-0.163zM6.429 18.516c0-0.004-0.004-0.022-0.012-0.054-0.002-0.012-0.004-0.025-0.008-0.038l-0.010-0.040c-0.003-0.011-0.006-0.021-0.008-0.032-0.007-0.015-0.011-0.026-0.013-0.033-0.035-0.096-0.089-0.163-0.162-0.204s-0.154-0.049-0.242-0.026c-0.071 0.019-0.125 0.051-0.159 0.097-0.039 0.051-0.054 0.101-0.046 0.15 0.007 0.049 0.014 0.087 0.022 0.115 0.007 0.026 0.013 0.048 0.017 0.064 0.008 0.029 0.015 0.056 0.023 0.081 0.007 0.025 0.013 0.049 0.019 0.071l0.58-0.152z"></path>
<path fill="#e2ecf2" style="fill: var(--color1, #e2ecf2)" d="M6.774 16.638l0.004 0.090 0.016 0.089-1.297 0.149c0.012 0.106 0.022 0.181 0.030 0.226s0.023 0.117 0.046 0.218l-0.062 0.001-0.060 0.013-0.121-1.052 0.062-0.001 0.061-0.013c0 0.051 0.002 0.115 0.006 0.194 0.003 0.077 0.010 0.155 0.019 0.235l1.297-0.149z"></path>
<path fill="#e2ecf2" style="fill: var(--color1, #e2ecf2)" d="M5.474 15.002l1.033 0.059c0.009-0.157-0.039-0.288-0.144-0.393-0.106-0.106-0.242-0.164-0.405-0.173-0.149-0.008-0.264 0.031-0.346 0.118s-0.127 0.217-0.137 0.389zM6.497 15.241l-1.033-0.059c-0.010 0.171 0.027 0.305 0.109 0.403 0.081 0.096 0.201 0.149 0.359 0.158 0.161 0.009 0.294-0.031 0.397-0.121 0.102-0.091 0.158-0.219 0.168-0.381zM6.568 15.245c-0.013 0.228-0.081 0.404-0.205 0.529-0.125 0.123-0.279 0.179-0.464 0.169-0.175-0.010-0.306-0.081-0.395-0.214s-0.126-0.316-0.113-0.551l-0.107-0.006c0.002-0.008 0.004-0.021 0.006-0.039s0.004-0.035 0.005-0.051c0.002-0.040 0.002-0.070-0.001-0.091l0.107 0.006c0.014-0.239 0.068-0.418 0.162-0.538 0.093-0.121 0.232-0.176 0.416-0.165 0.179 0.010 0.324 0.082 0.436 0.216 0.121 0.144 0.175 0.329 0.162 0.554l0.119 0.007c-0.005 0.020-0.009 0.043-0.010 0.067l-0.001 0.023c-0.001 0.015-0.002 0.030-0.003 0.045-0.001 0.014 0 0.029 0.004 0.045l-0.119-0.007z"></path>
<path fill="#e2ecf2" style="fill: var(--color1, #e2ecf2)" d="M6.104 13.521c-0.212-0.061-0.363-0.181-0.454-0.359-0.087-0.172-0.101-0.363-0.040-0.573 0.059-0.205 0.161-0.361 0.307-0.467 0.167-0.121 0.361-0.15 0.582-0.086 0.218 0.063 0.374 0.183 0.468 0.361 0.093 0.178 0.107 0.377 0.043 0.6-0.063 0.22-0.177 0.378-0.341 0.474-0.165 0.095-0.354 0.112-0.566 0.051zM5.99 12.233c-0.076 0.031-0.141 0.078-0.194 0.141-0.053 0.062-0.092 0.133-0.115 0.215-0.050 0.172-0.028 0.326 0.064 0.46 0.091 0.133 0.237 0.229 0.439 0.286 0.193 0.056 0.36 0.047 0.501-0.027 0.131-0.069 0.219-0.181 0.263-0.336 0.053-0.185 0.015-0.352-0.116-0.501-0.102-0.116-0.226-0.195-0.372-0.237-0.089-0.026-0.171-0.040-0.244-0.043-0.075-0.003-0.15 0.011-0.226 0.042z"></path>
<path fill="#e2ecf2" style="fill: var(--color1, #e2ecf2)" d="M7.413 11.631l-0.040 0.065-0.028 0.069c-0.030-0.043-0.114-0.149-0.251-0.318-0.111-0.136-0.248-0.302-0.413-0.498s-0.269-0.317-0.314-0.361l0.044-0.086c0.116 0.010 0.233 0.019 0.35 0.027 0.183 0.014 0.412 0.031 0.688 0.049 0.264 0.018 0.425 0.027 0.484 0.026l-0.050 0.085-0.040 0.093-1.263-0.117-0.008 0.017c0.152 0.185 0.3 0.361 0.446 0.527 0.147 0.165 0.279 0.306 0.396 0.423z"></path>
<path fill="#e2ecf2" style="fill: var(--color1, #e2ecf2)" d="M7.074 9.32l0.055-0.072 0.045-0.079 1.167 0.78-0.055 0.072-0.045 0.079-1.167-0.78z"></path>
<path fill="#e2ecf2" style="fill: var(--color1, #e2ecf2)" d="M7.977 9.15c-0.164-0.147-0.248-0.321-0.251-0.521-0.003-0.193 0.068-0.37 0.214-0.533 0.143-0.159 0.303-0.254 0.48-0.286 0.204-0.036 0.391 0.023 0.562 0.177 0.169 0.152 0.257 0.328 0.264 0.53 0.006 0.2-0.069 0.386-0.223 0.558-0.153 0.17-0.324 0.262-0.514 0.277-0.19 0.013-0.367-0.054-0.531-0.202zM8.437 7.941c-0.082-0.005-0.16 0.008-0.236 0.042-0.075 0.032-0.141 0.080-0.197 0.143-0.12 0.133-0.168 0.281-0.144 0.442 0.024 0.16 0.114 0.309 0.269 0.449 0.15 0.134 0.304 0.2 0.462 0.195 0.148-0.005 0.276-0.067 0.384-0.188 0.129-0.143 0.167-0.311 0.114-0.502-0.041-0.149-0.118-0.274-0.231-0.376-0.069-0.062-0.136-0.111-0.201-0.145-0.066-0.035-0.14-0.056-0.221-0.061z"></path>
<path fill="#e2ecf2" style="fill: var(--color1, #e2ecf2)" d="M10.533 6.42l-0.050 0.243c0.242 0.068 0.484 0.134 0.726 0.2l0.251 0.081 0.006 0.009-0.098 0.057-0.093 0.068c-0.036-0.014-0.072-0.028-0.11-0.041-0.037-0.015-0.074-0.027-0.111-0.038l-0.661-0.194c-0.009-0.001-0.018 0.001-0.028 0.006-0.004 0.004-0.005 0.007-0.005 0.008l0.392 0.6-0.079 0.044-0.072 0.055-0.768-1.175 0.079-0.044 0.072-0.055 0.347 0.531c0.004 0.004 0.010 0.002 0.018-0.007 0.009-0.009 0.016-0.020 0.020-0.033 0.004-0.014 0.011-0.044 0.022-0.090 0.004-0.017 0.008-0.034 0.012-0.052l0.138-0.713 0.072-0.040 0.064-0.049-0.145 0.629z"></path>
<path fill="#e2ecf2" style="fill: var(--color1, #e2ecf2)" d="M11.811 6.731l-0.072 0.026-0.065 0.036c0.003-0.053 0.005-0.188 0.004-0.405-0.001-0.175-0.004-0.391-0.008-0.647s-0.010-0.416-0.018-0.478l0.088-0.040c0.084 0.081 0.169 0.161 0.255 0.241 0.133 0.126 0.302 0.283 0.505 0.47 0.194 0.18 0.314 0.288 0.36 0.324l-0.092 0.035-0.089 0.047-0.91-0.884-0.017 0.008c0.001 0.239 0.007 0.47 0.017 0.691 0.011 0.22 0.025 0.413 0.042 0.578z"></path>
<path fill="#e2ecf2" style="fill: var(--color1, #e2ecf2)" d="M12.997 4.72l0.088-0.021 0.084-0.033 0.418 1.34-0.088 0.021-0.084 0.033-0.418-1.34z"></path>
<path fill="#e2ecf2" style="fill: var(--color1, #e2ecf2)" d="M14.827 4.282l0.090-0.009 0.088-0.021 0.23 1.385-0.090 0.009-0.088 0.021-0.116-0.697c-0.066 0.011-0.12 0.019-0.16 0.024-0.163 0.021-0.252 0.033-0.267 0.036-0.065 0.011-0.148 0.027-0.248 0.047-0.101 0.019-0.16 0.031-0.178 0.034l0.116 0.697-0.090 0.009-0.088 0.021-0.23-1.385 0.090-0.009 0.088-0.021 0.096 0.581c0.068-0.011 0.152-0.023 0.254-0.036 0.103-0.014 0.161-0.023 0.175-0.025 0.065-0.011 0.117-0.020 0.158-0.028 0.161-0.032 0.25-0.050 0.266-0.052l-0.096-0.581z"></path>
<path fill="#e2ecf2" style="fill: var(--color1, #e2ecf2)" d="M16.030 4.162l0.090 0.004 0.090-0.009 0.041 1.403-0.090-0.004-0.090 0.009-0.041-1.403z"></path>
<path fill="#e2ecf2" style="fill: var(--color1, #e2ecf2)" d="M17.362 4.63l-0.189 0.161c0.149 0.203 0.298 0.404 0.448 0.606l0.148 0.219-0.001 0.010-0.112-0.016-0.115-0.004c-0.019-0.033-0.040-0.067-0.061-0.1-0.020-0.035-0.041-0.067-0.064-0.098l-0.4-0.56c-0.006-0.006-0.015-0.010-0.026-0.013-0.006 0.001-0.008 0.002-0.009 0.003l-0.062 0.714-0.089-0.014-0.090-0.002 0.122-1.399 0.089 0.014 0.090 0.002-0.055 0.632c0.001 0.006 0.007 0.008 0.018 0.006 0.012-0.002 0.025-0.006 0.036-0.013 0.012-0.009 0.036-0.028 0.073-0.057 0.013-0.011 0.027-0.022 0.042-0.033l0.548-0.475 0.081 0.013 0.080 0.001-0.503 0.405z"></path>
<path fill="#e2ecf2" style="fill: var(--color1, #e2ecf2)" d="M18.646 4.312c0.005 0.003 0.015 0.007 0.031 0.013s0.034 0.011 0.055 0.017l0.089 0.018-0.284 1.033 0.020 0.005c0.001 0 0.032-0.018 0.092-0.056 0.031-0.020 0.101-0.064 0.211-0.133 0.084-0.054 0.16-0.103 0.228-0.148 0.080-0.053 0.175-0.117 0.285-0.192 0.005-0.004 0.091-0.064 0.256-0.179 0.074-0.052 0.111-0.078 0.113-0.078l0.087 0.024-0.372 1.354-0.085-0.030-0.089-0.018 0.297-1.081-0.020-0.005c-0.027 0.017-0.054 0.033-0.080 0.050-0.063 0.039-0.131 0.082-0.204 0.129-0.114 0.072-0.204 0.131-0.27 0.177-0.13 0.088-0.233 0.157-0.309 0.209-0.093 0.064-0.173 0.12-0.24 0.168-0.066 0.049-0.106 0.080-0.119 0.093l-0.063-0.017 0.372-1.354z"></path>
<path fill="#e2ecf2" style="fill: var(--color1, #e2ecf2)" d="M21.897 6.311c-0.048 0.084-0.119 0.139-0.211 0.165-0.090 0.025-0.178 0.014-0.262-0.035s-0.14-0.119-0.167-0.212c-0.025-0.093-0.014-0.182 0.035-0.266s0.119-0.138 0.212-0.162c0.095-0.024 0.184-0.013 0.268 0.036s0.138 0.119 0.161 0.211c0.025 0.092 0.013 0.179-0.036 0.264z"></path>
</symbol>
</defs>
</svg>
