<svg aria-hidden="true" style="position: absolute; width: 0; height: 0; overflow: hidden;" version="1.1" xmlns="http://www.w3.org/2000/svg" xmlns:xlink="http://www.w3.org/1999/xlink">
<defs>
<symbol id="icon-Decorative-circle" viewBox="0 0 32 32">
<path d="M15.751 2.708l-0.129-0.012-0.129 0.005 0.052-2.004 0.525 0.014c0.285 0.007 0.482 0.048 0.589 0.121s0.159 0.2 0.154 0.379c-0.005 0.172-0.061 0.304-0.169 0.397-0.1 0.085-0.258 0.147-0.474 0.184-0.026 0.005-0.060 0.008-0.103 0.009s-0.067 0.001-0.073 0.001c-0.045-0.001-0.085-0.003-0.12-0.006s-0.068-0.006-0.099-0.008l-0.024 0.92zM15.778 1.673c0.006 0.002 0.032 0.004 0.079 0.005 0.018 0.002 0.036 0.004 0.056 0.004l0.059 0.002c0.016 0 0.031 0.001 0.047 0.001 0.024-0.003 0.040-0.005 0.050-0.005 0.145-0.010 0.26-0.057 0.344-0.141s0.128-0.191 0.132-0.322c0.003-0.105-0.020-0.191-0.070-0.257-0.055-0.074-0.117-0.115-0.187-0.122-0.070-0.010-0.126-0.015-0.167-0.016-0.039-0.001-0.070-0.002-0.094-0.002-0.043-0.001-0.083-0.001-0.12-0-0.037-0.001-0.072-0.002-0.105-0.003l-0.022 0.856z"></path>
<path d="M17.985 0.843l0.126 0.028 0.129 0.010-0.295 1.983-0.126-0.028-0.129-0.010 0.295-1.983z"></path>
<path d="M20.239 3.27c-0.099 0.032-0.206 0.044-0.322 0.037-0.116-0.006-0.232-0.025-0.346-0.059-0.308-0.090-0.523-0.252-0.646-0.485s-0.14-0.504-0.050-0.812c0.090-0.308 0.263-0.523 0.521-0.645 0.245-0.115 0.522-0.128 0.829-0.038 0.099 0.029 0.197 0.070 0.294 0.123 0.098 0.053 0.189 0.115 0.273 0.184-0.019 0.025-0.041 0.057-0.065 0.097-0.023 0.038-0.042 0.072-0.057 0.102l-0.021-0.003c-0.013-0.032-0.040-0.075-0.082-0.128-0.108-0.138-0.237-0.228-0.385-0.272-0.248-0.072-0.467-0.040-0.657 0.098-0.178 0.127-0.304 0.318-0.378 0.573-0.078 0.268-0.072 0.503 0.020 0.705s0.25 0.336 0.475 0.402c0.101 0.030 0.211 0.040 0.33 0.032 0.119-0.010 0.23-0.039 0.333-0.086l-0.066 0.173z"></path>
<path d="M22.56 4.451l-0.132-0.077-0.142-0.063c0.029-0.211 0.049-0.383 0.062-0.515 0.008-0.084 0.015-0.194 0.023-0.33l-0.663-0.339c-0.229 0.201-0.359 0.316-0.389 0.344-0.062 0.056-0.138 0.133-0.228 0.229l-0.093-0.057-0.095-0.039 1.744-1.41 0.060 0.031-0.146 2.226zM22.438 2.52l-0.625 0.523 0.574 0.293 0.051-0.817z"></path>
<path d="M23.491 4.556c-0.010 0.119-0.002 0.217 0.023 0.294 0.030 0.091 0.089 0.168 0.177 0.234 0.094 0.070 0.196 0.094 0.306 0.074 0.113-0.021 0.204-0.080 0.275-0.175 0.088-0.119 0.093-0.259 0.015-0.42-0.081-0.14-0.161-0.281-0.239-0.421-0.070-0.171-0.050-0.332 0.062-0.483 0.107-0.145 0.242-0.219 0.406-0.224 0.151-0.005 0.302 0.048 0.451 0.159 0.063 0.047 0.117 0.101 0.163 0.164s0.076 0.129 0.090 0.198c-0.030 0.017-0.056 0.034-0.081 0.050-0.005 0.004-0.047 0.036-0.126 0.096l-0.023-0.017c0.023-0.085 0.023-0.163-0.002-0.235-0.022-0.072-0.068-0.135-0.139-0.187-0.083-0.062-0.173-0.088-0.269-0.079-0.094 0.008-0.171 0.054-0.231 0.135-0.088 0.119-0.093 0.259-0.015 0.42 0.080 0.142 0.16 0.283 0.241 0.423 0.073 0.171 0.057 0.327-0.047 0.469-0.122 0.165-0.276 0.255-0.462 0.271-0.176 0.015-0.349-0.039-0.517-0.164-0.064-0.048-0.126-0.113-0.184-0.195s-0.091-0.158-0.099-0.226c0.038-0.025 0.070-0.050 0.096-0.075 0.028-0.025 0.063-0.059 0.104-0.102l0.024 0.017z"></path>
<path d="M25.049 5.752c-0.027 0.116-0.033 0.215-0.019 0.295 0.017 0.094 0.065 0.179 0.143 0.256 0.084 0.082 0.181 0.121 0.293 0.116 0.115-0.005 0.214-0.050 0.297-0.135 0.104-0.106 0.129-0.244 0.074-0.413-0.061-0.15-0.12-0.301-0.177-0.451-0.045-0.179-0.002-0.336 0.129-0.47 0.126-0.128 0.271-0.183 0.434-0.165 0.15 0.017 0.292 0.091 0.424 0.221 0.055 0.055 0.102 0.117 0.138 0.186s0.057 0.139 0.062 0.209c-0.032 0.013-0.061 0.025-0.087 0.038-0.006 0.003-0.052 0.029-0.138 0.078l-0.021-0.021c0.035-0.080 0.046-0.158 0.031-0.233-0.011-0.075-0.049-0.143-0.111-0.205-0.074-0.073-0.159-0.112-0.256-0.116-0.094-0.005-0.177 0.029-0.248 0.101-0.104 0.106-0.129 0.244-0.074 0.413 0.059 0.152 0.119 0.303 0.179 0.453 0.048 0.179 0.011 0.332-0.113 0.457-0.144 0.146-0.309 0.214-0.495 0.203-0.177-0.010-0.34-0.088-0.489-0.235-0.057-0.056-0.108-0.129-0.155-0.219s-0.068-0.169-0.066-0.238c0.041-0.020 0.076-0.040 0.105-0.061 0.032-0.021 0.071-0.050 0.117-0.086l0.021 0.021z"></path>
<path d="M28.398 7.699c0.034-0.112 0.041-0.226 0.020-0.342-0.020-0.115-0.064-0.222-0.134-0.321-0.146-0.21-0.335-0.325-0.567-0.345-0.23-0.019-0.467 0.057-0.713 0.228-0.236 0.164-0.376 0.357-0.422 0.579-0.042 0.207 0.003 0.406 0.135 0.596 0.157 0.226 0.377 0.334 0.659 0.323 0.22-0.008 0.42-0.074 0.598-0.198 0.109-0.076 0.198-0.153 0.267-0.232 0.071-0.080 0.123-0.176 0.157-0.288zM26.87 6.663c0.258-0.18 0.527-0.239 0.807-0.179 0.269 0.058 0.492 0.216 0.67 0.473 0.174 0.251 0.254 0.505 0.239 0.762-0.017 0.295-0.16 0.536-0.429 0.724-0.266 0.185-0.54 0.25-0.822 0.193-0.28-0.057-0.514-0.222-0.702-0.493-0.186-0.268-0.258-0.537-0.217-0.806 0.044-0.269 0.195-0.493 0.454-0.673z"></path>
<path d="M28.521 11.172c0.017 0.056 0.038 0.131 0.063 0.226 0.027 0.094 0.040 0.142 0.041 0.144 0.033 0.107 0.064 0.192 0.094 0.256s0.070 0.123 0.121 0.175c0.114 0.12 0.257 0.191 0.427 0.212 0.151 0.019 0.318 0.001 0.501-0.056 0.295-0.091 0.483-0.221 0.564-0.391 0.083-0.169 0.076-0.412-0.021-0.729-0.012-0.039-0.034-0.105-0.066-0.197s-0.050-0.143-0.053-0.152l-1.67 0.513zM30.228 10.378l0.253 0.827c0.054 0.176 0.080 0.314 0.078 0.415-0.001 0.084-0.020 0.17-0.056 0.257-0.051 0.126-0.131 0.232-0.24 0.319-0.108 0.088-0.231 0.154-0.369 0.196-0.185 0.057-0.358 0.074-0.52 0.052-0.143-0.020-0.281-0.070-0.415-0.152-0.094-0.059-0.178-0.144-0.252-0.254-0.072-0.109-0.145-0.284-0.22-0.527l-0.167-0.547 1.908-0.586z"></path>
<path d="M30.221 13.863l0.054 0.451c0.004 0.037 0.012 0.085 0.023 0.145 0.013 0.061 0.021 0.099 0.022 0.112l-0.077 0-0.081 0.019c-0.004-0.035-0.008-0.084-0.011-0.146-0.002-0.063-0.003-0.101-0.005-0.115l-0.054-0.451-0.85 0.102c0.008 0.062 0.021 0.163 0.042 0.302 0.021 0.141 0.032 0.216 0.033 0.223 0.006 0.054 0.012 0.094 0.017 0.119 0.007 0.025 0.021 0.073 0.041 0.146l-0.088 0.002-0.086 0.019-0.126-1.051 1.982-0.238 0.123 1.033-0.088 0.002-0.086 0.019c0.005-0.060 0.007-0.108 0.006-0.145 0.001-0.038-0-0.078-0.006-0.12l-0.029-0.292-0.027-0.224-0.731 0.088z"></path>
<path d="M29.193 17.308l0.005-0.088 0.187-0.142 1.473-1.182 0.002-0.029-1.577-0.092 0.013-0.081-0.004-0.082 2.002 0.117-0.007 0.114-1.588 1.302-0.002 0.029 1.507 0.088-0.013 0.081 0.004 0.082-2.002-0.117z"></path>
<path d="M28.871 19.142l0.040-0.123 0.022-0.127 1.815 0.453c0.037-0.148 0.061-0.254 0.073-0.317s0.028-0.168 0.048-0.314l0.083 0.030 0.087 0.013-0.365 1.468-0.083-0.030-0.087-0.013c0.025-0.068 0.055-0.156 0.089-0.262 0.034-0.104 0.065-0.212 0.093-0.324l-1.815-0.453z"></path>
<path d="M27.967 21.759l0.067-0.137 0.052-0.147c0.213 0.013 0.385 0.021 0.518 0.024 0.084 0.002 0.194 0.001 0.331-0.001l0.288-0.687c-0.217-0.214-0.341-0.336-0.372-0.363-0.061-0.057-0.142-0.128-0.245-0.211l0.050-0.097 0.032-0.098 1.535 1.639-0.026 0.062-2.229 0.016zM29.882 21.497l-0.568-0.586-0.249 0.595 0.817-0.009z"></path>
<path d="M27.561 22.821c-0.033 0.053-0.086 0.14-0.158 0.261-0.073 0.123-0.111 0.187-0.116 0.194-0.025 0.040-0.053 0.090-0.082 0.153-0.019 0.044-0.033 0.076-0.044 0.097l-0.070-0.054-0.079-0.040 0.569-0.902 1.686 1.068-0.076 0.104-0.061 0.114-1.57-0.994z"></path>
<path d="M24.851 26.099c0.021-0.102 0.064-0.201 0.129-0.298 0.063-0.098 0.138-0.189 0.224-0.271 0.231-0.222 0.479-0.327 0.743-0.317s0.506 0.131 0.727 0.363c0.221 0.232 0.32 0.49 0.297 0.775-0.023 0.271-0.15 0.517-0.382 0.738-0.075 0.072-0.159 0.136-0.253 0.193-0.095 0.059-0.194 0.107-0.295 0.145-0.012-0.029-0.029-0.064-0.052-0.105-0.021-0.039-0.041-0.073-0.060-0.101l0.013-0.016c0.034 0.005 0.085 0.003 0.151-0.007 0.173-0.025 0.315-0.091 0.427-0.198 0.186-0.179 0.268-0.385 0.244-0.619-0.021-0.218-0.124-0.423-0.307-0.615-0.193-0.202-0.399-0.314-0.62-0.336s-0.415 0.049-0.585 0.211c-0.076 0.073-0.14 0.163-0.192 0.269-0.051 0.108-0.082 0.219-0.093 0.332l-0.117-0.144z"></path>
<path d="M23.879 26.898c-0.052 0.035-0.135 0.094-0.249 0.177-0.116 0.084-0.177 0.128-0.183 0.132-0.039 0.026-0.084 0.062-0.136 0.107-0.034 0.033-0.061 0.057-0.079 0.072l-0.042-0.078-0.057-0.068 0.881-0.601 1.122 1.651-0.111 0.065-0.102 0.080-1.045-1.537z"></path>
<path d="M23.281 29.469l-0.118 0.052-0.11 0.068-0.928-1.777 0.118-0.052 0.11-0.068 0.928 1.777z"></path>
<path d="M19.816 28.765l0.083-0.029 0.202 0.12 1.652 0.914 0.028-0.010-0.512-1.495 0.080-0.018 0.075-0.035 0.65 1.897-0.108 0.037-1.806-0.975-0.028 0.010 0.489 1.428-0.080 0.018-0.075 0.035-0.65-1.897z"></path>
<path d="M18.971 31.032l-0.128 0.015-0.125 0.032-0.359-1.973 0.128-0.015 0.125-0.032 0.359 1.973z"></path>
<path d="M16.055 29.464c0.083-0.062 0.181-0.109 0.293-0.139 0.112-0.032 0.228-0.051 0.347-0.057 0.32-0.014 0.576 0.069 0.768 0.25s0.295 0.432 0.309 0.752-0.081 0.58-0.285 0.779c-0.195 0.189-0.453 0.29-0.773 0.304-0.103 0.005-0.209-0.002-0.318-0.021-0.11-0.018-0.216-0.047-0.318-0.085 0.010-0.030 0.020-0.067 0.030-0.113 0.010-0.043 0.017-0.082 0.021-0.115l0.020-0.004c0.023 0.026 0.062 0.058 0.119 0.095 0.147 0.095 0.298 0.139 0.452 0.132 0.258-0.012 0.455-0.113 0.591-0.305 0.127-0.178 0.185-0.399 0.173-0.665-0.012-0.279-0.095-0.5-0.247-0.661s-0.345-0.237-0.579-0.226c-0.105 0.005-0.213 0.030-0.322 0.076-0.109 0.048-0.205 0.111-0.288 0.189l0.006-0.185z"></path>
<path d="M12.629 29.938c0.030-0.135 0.102-0.24 0.217-0.315 0.112-0.073 0.236-0.095 0.372-0.064s0.241 0.103 0.318 0.218c0.074 0.117 0.096 0.243 0.066 0.378s-0.103 0.239-0.219 0.311c-0.118 0.074-0.245 0.096-0.381 0.065s-0.238-0.103-0.309-0.219c-0.073-0.114-0.094-0.239-0.064-0.375z"></path>
<path d="M10.376 28.246l-0.261-0.135c-0.129-0.066-0.253-0.080-0.374-0.041-0.124 0.040-0.216 0.118-0.277 0.236-0.048 0.094-0.063 0.188-0.043 0.282 0.021 0.103 0.062 0.174 0.122 0.211 0.057 0.038 0.104 0.067 0.14 0.086 0.035 0.018 0.063 0.032 0.083 0.043 0.038 0.020 0.075 0.038 0.111 0.054 0.033 0.017 0.064 0.033 0.094 0.048l0.404-0.785zM9.747 30.032l-1.055-0.545c0.004-0.004 0.011-0.014 0.021-0.029 0.009-0.013 0.018-0.028 0.027-0.045l0.032-0.082c0.047 0.037 0.086 0.066 0.117 0.087 0.030 0.022 0.065 0.043 0.103 0.063l0.31 0.167 0.279 0.144 0.339-0.66-0.24-0.124c-0.252-0.13-0.412-0.258-0.482-0.384-0.072-0.125-0.066-0.268 0.017-0.43 0.081-0.158 0.202-0.26 0.361-0.305 0.157-0.044 0.323-0.021 0.498 0.069 0.076 0.040 0.164 0.084 0.262 0.132 0.097 0.050 0.205 0.106 0.323 0.167l-0.913 1.775z"></path>
<path d="M7.522 28.78l-0.101-0.081-0.111-0.066 1.136-1.652 0.101 0.080 0.111 0.066-1.136 1.652z"></path>
<path d="M7.799 26.541l0.075 0.079 0.085 0.064c-0.070 0.026-0.247 0.103-0.53 0.23-0.228 0.103-0.507 0.232-0.839 0.387s-0.536 0.255-0.613 0.301l-0.103-0.092c0.056-0.157 0.111-0.314 0.166-0.473 0.087-0.247 0.193-0.558 0.32-0.933 0.122-0.358 0.193-0.577 0.213-0.659l0.099 0.1 0.113 0.089-0.624 1.702 0.020 0.018c0.311-0.141 0.608-0.282 0.891-0.423 0.281-0.142 0.524-0.272 0.729-0.391z"></path>
<path d="M5.758 24.74l-0.179-0.229c-0.1-0.106-0.209-0.164-0.327-0.176s-0.229 0.023-0.332 0.104c-0.086 0.067-0.141 0.143-0.165 0.226-0.027 0.096-0.021 0.173 0.018 0.232 0.036 0.059 0.067 0.104 0.092 0.137 0.024 0.031 0.043 0.055 0.058 0.074 0.026 0.034 0.052 0.065 0.076 0.093 0.023 0.029 0.045 0.057 0.065 0.083l0.694-0.544zM4.973 25.355l-0.164-0.21c-0.172-0.22-0.262-0.398-0.269-0.534-0.008-0.138 0.059-0.262 0.202-0.375 0.135-0.106 0.273-0.147 0.413-0.123 0.129 0.023 0.277 0.105 0.443 0.248 0.023 0.019 0.063 0.065 0.121 0.136 0.057 0.070 0.090 0.111 0.1 0.123l0.034 0.044 0.074 0.095c0.019 0.025 0.035 0.047 0.048 0.067 0.013 0.017 0.025 0.032 0.034 0.044l-1.571 1.232-0.072-0.107-0.086-0.096 0.692-0.543z"></path>
<path d="M4.173 22.479l-1.664 0.827-0.049-0.119c-0.025-0.051-0.047-0.088-0.065-0.112l1.664-0.827-0.14-0.303-0.148-0.28-1.664 0.827-0.049-0.119-0.065-0.112 1.795-0.892 0.921 1.86-1.795 0.892-0.049-0.119-0.065-0.112 1.664-0.827-0.133-0.288-0.156-0.296z"></path>
<path d="M2.191 20.262l-0.12-0.438c-0.010-0.036-0.025-0.082-0.044-0.14-0.022-0.059-0.035-0.095-0.039-0.108l0.076-0.012 0.077-0.030c0.009 0.034 0.020 0.082 0.033 0.143 0.011 0.062 0.018 0.099 0.022 0.113l0.12 0.438 0.826-0.226c-0.016-0.060-0.045-0.158-0.086-0.293-0.041-0.137-0.063-0.209-0.065-0.216-0.014-0.053-0.026-0.091-0.034-0.115-0.010-0.023-0.031-0.070-0.062-0.138l0.087-0.015 0.083-0.032 0.279 1.021-1.925 0.527-0.274-1.004 0.087-0.015 0.083-0.032c0.004 0.060 0.009 0.108 0.015 0.145 0.004 0.037 0.012 0.077 0.023 0.118l0.072 0.284 0.059 0.218 0.71-0.194z"></path>
<path d="M0.689 15.534l2.005-0.005-0.008 0.129 0.009 0.129-1.858 0.005-0.007 0.616 0.010 0.618 1.858-0.005-0.008 0.129 0.009 0.129-2.005 0.005-0.005-1.75z"></path>
<path d="M2.817 14.131l-0.032 0.125-0.015 0.128-1.971-0.369 0.096-0.516c0.052-0.28 0.123-0.468 0.212-0.563s0.222-0.125 0.399-0.092c0.169 0.032 0.291 0.108 0.366 0.23 0.069 0.112 0.104 0.278 0.107 0.497 0.001 0.026-0.001 0.060-0.007 0.103s-0.010 0.067-0.011 0.073c-0.008 0.044-0.017 0.083-0.025 0.118s-0.016 0.067-0.024 0.097l0.905 0.169zM1.8 13.94c0.003-0.005 0.009-0.031 0.017-0.077 0.005-0.017 0.010-0.035 0.013-0.054l0.011-0.058c0.003-0.015 0.006-0.031 0.009-0.046 0-0.024 0.002-0.040 0.003-0.050 0.013-0.145-0.015-0.265-0.085-0.362s-0.169-0.157-0.297-0.181c-0.104-0.019-0.192-0.010-0.265 0.028-0.081 0.042-0.132 0.098-0.15 0.166-0.021 0.068-0.035 0.122-0.042 0.162-0.007 0.038-0.013 0.069-0.017 0.092-0.008 0.042-0.014 0.082-0.019 0.119-0.007 0.037-0.013 0.071-0.019 0.104l0.841 0.158z"></path>
<path d="M2.167 12.069c-0.292-0.117-0.49-0.309-0.594-0.576-0.099-0.257-0.091-0.53 0.025-0.821 0.113-0.283 0.281-0.49 0.503-0.619 0.255-0.148 0.535-0.161 0.84-0.039 0.301 0.121 0.506 0.314 0.614 0.581 0.106 0.266 0.098 0.552-0.024 0.859-0.121 0.303-0.305 0.511-0.553 0.625-0.248 0.111-0.519 0.108-0.811-0.009zM2.189 10.221c-0.112 0.033-0.211 0.090-0.296 0.172-0.085 0.080-0.149 0.176-0.194 0.289-0.095 0.238-0.087 0.459 0.025 0.664 0.111 0.202 0.305 0.359 0.582 0.47 0.267 0.107 0.505 0.118 0.716 0.034 0.196-0.079 0.337-0.226 0.422-0.44 0.102-0.256 0.071-0.499-0.094-0.729-0.128-0.18-0.293-0.31-0.494-0.391-0.123-0.049-0.237-0.081-0.341-0.095-0.106-0.015-0.214-0.006-0.326 0.027z"></path>
<path d="M4.344 6.083l0.089-0.094 0.075-0.105 1.546 1.277-0.089 0.094-0.075 0.105-0.777-0.642c-0.061 0.074-0.111 0.133-0.149 0.177-0.155 0.176-0.239 0.272-0.253 0.289-0.060 0.072-0.134 0.167-0.222 0.284-0.090 0.116-0.143 0.183-0.159 0.203l0.777 0.642-0.089 0.094-0.075 0.105-1.546-1.277 0.089-0.094 0.075-0.105 0.649 0.536c0.062-0.075 0.142-0.168 0.24-0.277 0.097-0.112 0.152-0.176 0.165-0.191 0.060-0.072 0.107-0.132 0.143-0.178 0.143-0.186 0.222-0.288 0.237-0.306l-0.649-0.536z"></path>
<path d="M8.074 5.306l-0.123 0.090-0.115 0.105c-0.182-0.111-0.33-0.199-0.446-0.264-0.074-0.041-0.171-0.092-0.293-0.154l-0.576 0.472c0.091 0.291 0.144 0.456 0.158 0.495 0.027 0.079 0.066 0.18 0.118 0.302l-0.089 0.062-0.074 0.072-0.588-2.167 0.052-0.043 1.976 1.030zM6.259 4.64l0.227 0.784 0.499-0.409-0.726-0.375z"></path>
<path d="M9.927 4.013c-0.047 0.093-0.114 0.178-0.2 0.255-0.086 0.079-0.181 0.147-0.285 0.205-0.28 0.155-0.547 0.195-0.799 0.118s-0.456-0.255-0.611-0.536c-0.155-0.28-0.185-0.555-0.091-0.825 0.091-0.256 0.276-0.462 0.557-0.617 0.091-0.050 0.189-0.091 0.294-0.123 0.107-0.033 0.215-0.054 0.322-0.065 0.004 0.031 0.012 0.070 0.023 0.115 0.011 0.043 0.021 0.081 0.032 0.113l-0.017 0.013c-0.032-0.014-0.081-0.024-0.148-0.032-0.174-0.020-0.328 0.008-0.463 0.083-0.226 0.125-0.357 0.304-0.393 0.537-0.035 0.216 0.012 0.44 0.141 0.673 0.135 0.245 0.307 0.405 0.514 0.482s0.414 0.059 0.619-0.055c0.092-0.051 0.177-0.122 0.255-0.212 0.077-0.092 0.135-0.191 0.174-0.298l0.076 0.169z"></path>
<path d="M12.785 2.067c0.033 0.135 0.014 0.261-0.055 0.379-0.068 0.115-0.17 0.19-0.305 0.223s-0.262 0.015-0.381-0.054c-0.118-0.072-0.194-0.175-0.226-0.31s-0.013-0.26 0.059-0.377c0.074-0.119 0.178-0.194 0.313-0.227s0.259-0.013 0.374 0.059c0.116 0.070 0.19 0.173 0.223 0.308z"></path>
</symbol>
<symbol id="portfolio-icon" viewBox="0 0 31 32">
<path fill="#e2ecf2" style="fill: var(--color1, #e2ecf2)" d="M23.028 7.985l-0.061-0.067-0.070-0.058 0.97-1.015 0.266 0.254c0.144 0.138 0.227 0.251 0.249 0.34s-0.011 0.178-0.098 0.269c-0.083 0.087-0.175 0.129-0.274 0.127-0.092-0.003-0.203-0.045-0.332-0.127-0.016-0.009-0.035-0.024-0.058-0.044s-0.036-0.031-0.039-0.034c-0.023-0.022-0.043-0.042-0.059-0.060s-0.033-0.035-0.048-0.051l-0.445 0.466zM23.528 7.461c0.002 0.004 0.015 0.017 0.039 0.040 0.008 0.009 0.017 0.019 0.027 0.028l0.030 0.028c0.008 0.008 0.016 0.015 0.024 0.023 0.014 0.009 0.023 0.016 0.028 0.021 0.080 0.063 0.161 0.093 0.244 0.089s0.156-0.039 0.22-0.105c0.051-0.053 0.079-0.109 0.085-0.166 0.006-0.064-0.007-0.115-0.040-0.152s-0.058-0.067-0.079-0.087c-0.020-0.019-0.036-0.034-0.047-0.045-0.022-0.021-0.043-0.040-0.062-0.057-0.019-0.018-0.037-0.035-0.053-0.051l-0.414 0.433z"></path>
<path fill="#e2ecf2" style="fill: var(--color1, #e2ecf2)" d="M25.026 8.016l0.053 0.073 0.063 0.065-1.074 0.904-0.053-0.073-0.063-0.065 1.074-0.904z"></path>
<path fill="#e2ecf2" style="fill: var(--color1, #e2ecf2)" d="M25.052 10.262c-0.067-0.028-0.13-0.071-0.188-0.127-0.059-0.056-0.112-0.119-0.157-0.189-0.122-0.188-0.163-0.372-0.122-0.553s0.156-0.331 0.344-0.454c0.188-0.122 0.378-0.157 0.571-0.104 0.183 0.051 0.336 0.17 0.458 0.358 0.040 0.061 0.073 0.127 0.1 0.199 0.028 0.073 0.048 0.147 0.061 0.222-0.022 0.004-0.048 0.012-0.079 0.022-0.030 0.009-0.055 0.019-0.077 0.028l-0.010-0.011c0.008-0.023 0.013-0.058 0.015-0.105 0.005-0.123-0.022-0.229-0.081-0.32-0.098-0.151-0.23-0.234-0.394-0.248-0.152-0.014-0.307 0.030-0.463 0.132-0.164 0.107-0.268 0.234-0.311 0.383s-0.021 0.292 0.069 0.43c0.040 0.062 0.094 0.118 0.16 0.168 0.068 0.049 0.14 0.085 0.216 0.107l-0.114 0.062z"></path>
<path fill="#e2ecf2" style="fill: var(--color1, #e2ecf2)" d="M25.757 11.913l-0.036-0.101-0.048-0.098c0.11-0.101 0.198-0.183 0.264-0.249 0.042-0.042 0.095-0.097 0.161-0.167l-0.204-0.48c-0.214 0.005-0.335 0.008-0.364 0.010-0.058 0.002-0.134 0.009-0.226 0.020l-0.024-0.072-0.034-0.064 1.571 0.027 0.018 0.043-1.079 1.128zM26.56 10.822l-0.571-0 0.177 0.415 0.394-0.415z"></path>
<path fill="#e2ecf2" style="fill: var(--color1, #e2ecf2)" d="M26.209 12.354c-0.058 0.060-0.097 0.117-0.118 0.17-0.024 0.062-0.026 0.131-0.007 0.205 0.020 0.080 0.065 0.138 0.134 0.176 0.071 0.038 0.146 0.047 0.227 0.027 0.101-0.026 0.165-0.099 0.194-0.221 0.018-0.112 0.037-0.223 0.057-0.334 0.038-0.124 0.12-0.202 0.247-0.235 0.122-0.031 0.229-0.012 0.32 0.058 0.084 0.065 0.142 0.16 0.175 0.286 0.014 0.053 0.019 0.107 0.016 0.161s-0.016 0.104-0.039 0.148c-0.024-0.004-0.045-0.007-0.066-0.009-0.004-0-0.041-0.001-0.111-0.003l-0.005-0.020c0.050-0.035 0.085-0.078 0.103-0.128 0.020-0.049 0.022-0.103 0.007-0.163-0.018-0.070-0.055-0.124-0.111-0.162-0.055-0.037-0.116-0.047-0.185-0.029-0.101 0.026-0.165 0.099-0.194 0.221-0.019 0.112-0.038 0.224-0.056 0.336-0.036 0.125-0.113 0.203-0.233 0.233-0.139 0.036-0.263 0.016-0.371-0.058-0.103-0.070-0.172-0.176-0.208-0.318-0.014-0.054-0.018-0.117-0.014-0.187s0.020-0.126 0.046-0.166c0.032 0.003 0.060 0.004 0.085 0.002 0.027-0.001 0.060-0.004 0.102-0.009l0.005 0.020z"></path>
<path fill="#e2ecf2" style="fill: var(--color1, #e2ecf2)" d="M26.521 13.637c-0.065 0.052-0.112 0.103-0.139 0.153-0.031 0.059-0.043 0.126-0.033 0.202 0.010 0.082 0.047 0.145 0.11 0.191 0.065 0.047 0.139 0.066 0.222 0.056 0.103-0.012 0.177-0.077 0.221-0.194 0.032-0.109 0.065-0.217 0.099-0.324 0.053-0.118 0.145-0.185 0.276-0.201 0.125-0.015 0.228 0.018 0.31 0.099 0.075 0.075 0.121 0.177 0.136 0.306 0.007 0.054 0.005 0.108-0.005 0.162s-0.029 0.101-0.057 0.141c-0.023-0.007-0.044-0.013-0.064-0.017-0.004-0.001-0.041-0.007-0.11-0.018l-0.002-0.020c0.054-0.029 0.094-0.066 0.119-0.114 0.026-0.046 0.036-0.099 0.028-0.161-0.009-0.072-0.038-0.13-0.089-0.175-0.049-0.044-0.109-0.061-0.18-0.053-0.103 0.012-0.177 0.077-0.221 0.194-0.034 0.109-0.067 0.218-0.099 0.326-0.052 0.119-0.139 0.186-0.261 0.201-0.143 0.017-0.263-0.018-0.36-0.105-0.093-0.083-0.148-0.197-0.165-0.342-0.007-0.056-0.003-0.118 0.010-0.187s0.036-0.122 0.068-0.159c0.031 0.007 0.059 0.011 0.084 0.013 0.026 0.002 0.060 0.004 0.102 0.004l0.002 0.020z"></path>
<path fill="#e2ecf2" style="fill: var(--color1, #e2ecf2)" d="M27.532 16.101c0.067-0.047 0.119-0.108 0.157-0.181 0.038-0.072 0.059-0.15 0.063-0.235 0.009-0.179-0.047-0.324-0.167-0.434-0.119-0.109-0.283-0.169-0.492-0.179-0.201-0.010-0.361 0.036-0.482 0.14-0.112 0.097-0.172 0.226-0.18 0.387-0.010 0.193 0.066 0.347 0.227 0.462 0.126 0.090 0.264 0.139 0.416 0.146 0.093 0.005 0.175 0 0.247-0.014 0.073-0.014 0.143-0.045 0.21-0.092zM27.128 14.872c0.22 0.011 0.395 0.093 0.524 0.247 0.124 0.147 0.181 0.33 0.169 0.549-0.011 0.213-0.075 0.388-0.193 0.524-0.135 0.156-0.318 0.228-0.547 0.217-0.227-0.012-0.406-0.093-0.538-0.245-0.131-0.152-0.19-0.343-0.178-0.574 0.012-0.228 0.086-0.408 0.225-0.539 0.14-0.13 0.319-0.189 0.539-0.178z"></path>
<path fill="#e2ecf2" style="fill: var(--color1, #e2ecf2)" d="M26.168 17.997c-0.013 0.039-0.033 0.090-0.058 0.154-0.024 0.064-0.036 0.097-0.036 0.098-0.026 0.074-0.043 0.135-0.053 0.184s-0.011 0.098-0.004 0.149c0.015 0.115 0.066 0.214 0.153 0.297 0.077 0.073 0.179 0.132 0.306 0.176 0.204 0.071 0.364 0.075 0.48 0.013 0.117-0.061 0.213-0.201 0.29-0.421 0.009-0.027 0.024-0.073 0.044-0.139s0.031-0.102 0.033-0.108l-1.155-0.401zM27.46 18.255l-0.199 0.572c-0.042 0.122-0.085 0.21-0.127 0.266-0.035 0.047-0.081 0.088-0.138 0.122-0.081 0.050-0.17 0.077-0.267 0.081-0.097 0.005-0.194-0.009-0.29-0.042-0.128-0.044-0.233-0.106-0.316-0.186-0.073-0.070-0.13-0.156-0.171-0.257-0.029-0.072-0.041-0.155-0.038-0.248 0.004-0.091 0.035-0.221 0.094-0.389l0.131-0.378 1.32 0.459z"></path>
<path fill="#e2ecf2" style="fill: var(--color1, #e2ecf2)" d="M26.040 20.201l-0.153 0.279c-0.012 0.023-0.028 0.053-0.046 0.092-0.017 0.040-0.028 0.065-0.033 0.073l-0.044-0.031-0.053-0.022c0.012-0.022 0.029-0.051 0.053-0.088 0.025-0.036 0.039-0.059 0.044-0.067l0.153-0.279-0.526-0.288c-0.021 0.038-0.054 0.102-0.099 0.189-0.046 0.089-0.070 0.136-0.072 0.141-0.018 0.034-0.031 0.059-0.039 0.075-0.006 0.017-0.018 0.050-0.036 0.1l-0.051-0.035-0.057-0.024 0.355-0.65 1.226 0.671-0.35 0.639-0.051-0.035-0.057-0.024c0.027-0.032 0.048-0.059 0.063-0.080 0.016-0.021 0.031-0.044 0.046-0.071l0.102-0.178 0.076-0.139-0.452-0.247z"></path>
<path fill="#e2ecf2" style="fill: var(--color1, #e2ecf2)" d="M24.095 21.72l0.038-0.048 0.164-0.007 1.319-0.091 0.013-0.016-0.87-0.683 0.040-0.041 0.031-0.049 1.104 0.867-0.049 0.063-1.433 0.114-0.013 0.016 0.831 0.653-0.040 0.041-0.031 0.049-1.104-0.867z"></path>
<path fill="#e2ecf2" style="fill: var(--color1, #e2ecf2)" d="M23.201 22.647l0.071-0.056 0.063-0.065 0.876 0.973c0.079-0.071 0.135-0.123 0.167-0.156s0.082-0.087 0.151-0.164l0.037 0.050 0.046 0.042-0.787 0.709-0.037-0.050-0.046-0.042c0.041-0.030 0.093-0.069 0.154-0.117 0.061-0.047 0.121-0.098 0.181-0.152l-0.876-0.973z"></path>
<path fill="#e2ecf2" style="fill: var(--color1, #e2ecf2)" d="M21.706 23.794l0.092-0.055 0.087-0.066c0.12 0.089 0.218 0.16 0.294 0.212 0.049 0.033 0.114 0.075 0.194 0.126l0.432-0.292c-0.045-0.209-0.072-0.327-0.079-0.355-0.014-0.057-0.035-0.129-0.063-0.218l0.066-0.037 0.056-0.045 0.272 1.547-0.039 0.026-1.313-0.845zM22.93 24.375l-0.108-0.561-0.374 0.253 0.483 0.308z"></path>
<path fill="#e2ecf2" style="fill: var(--color1, #e2ecf2)" d="M21.093 24.255c-0.040 0.019-0.103 0.050-0.191 0.095-0.089 0.045-0.136 0.069-0.141 0.071-0.030 0.014-0.065 0.034-0.106 0.059-0.027 0.019-0.048 0.033-0.062 0.041l-0.021-0.058-0.032-0.053 0.676-0.319 0.597 1.264-0.084 0.033-0.079 0.044-0.556-1.177z"></path>
<path fill="#e2ecf2" style="fill: var(--color1, #e2ecf2)" d="M18.404 25.168c0.050-0.053 0.111-0.097 0.185-0.132 0.073-0.036 0.151-0.063 0.232-0.081 0.219-0.049 0.406-0.022 0.56 0.079s0.256 0.262 0.305 0.481c0.049 0.219 0.015 0.41-0.102 0.572-0.111 0.154-0.277 0.255-0.496 0.304-0.071 0.016-0.145 0.024-0.222 0.024-0.078 0.001-0.155-0.006-0.23-0.020 0.004-0.022 0.006-0.049 0.007-0.081 0.001-0.031 0.002-0.059 0.001-0.082l0.014-0.005c0.019 0.015 0.050 0.032 0.093 0.051 0.113 0.048 0.222 0.060 0.328 0.036 0.176-0.039 0.3-0.133 0.37-0.282 0.066-0.138 0.079-0.298 0.038-0.48-0.043-0.191-0.126-0.333-0.251-0.426s-0.267-0.121-0.427-0.086c-0.072 0.016-0.143 0.047-0.213 0.092-0.070 0.046-0.128 0.101-0.175 0.165l-0.018-0.128z"></path>
<path fill="#e2ecf2" style="fill: var(--color1, #e2ecf2)" d="M17.571 25.303c-0.044 0.003-0.115 0.008-0.213 0.017-0.099 0.009-0.152 0.013-0.157 0.014-0.033 0.002-0.073 0.007-0.12 0.016-0.032 0.007-0.057 0.012-0.073 0.015l0.002-0.062-0.010-0.061 0.746-0.046 0.085 1.395-0.090-0.001-0.090 0.012-0.080-1.299z"></path>
<path fill="#e2ecf2" style="fill: var(--color1, #e2ecf2)" d="M16.364 26.65l-0.090-0.009-0.090 0.003 0.045-1.403 0.090 0.009 0.090-0.003-0.045 1.403z"></path>
<path fill="#e2ecf2" style="fill: var(--color1, #e2ecf2)" d="M14.566 25.053l0.061 0.010 0.084 0.141 0.708 1.117 0.020 0.003 0.187-1.090 0.056 0.016 0.058 0.004-0.237 1.384-0.079-0.014-0.782-1.207-0.020-0.003-0.179 1.042-0.056-0.016-0.058-0.004 0.237-1.384z"></path>
<path fill="#e2ecf2" style="fill: var(--color1, #e2ecf2)" d="M13.315 26.182l-0.084-0.033-0.088-0.022 0.426-1.338 0.084 0.033 0.088 0.022-0.426 1.338z"></path>
<path fill="#e2ecf2" style="fill: var(--color1, #e2ecf2)" d="M12.096 24.295c0.072-0.012 0.148-0.010 0.227 0.008 0.080 0.016 0.158 0.041 0.234 0.076 0.204 0.094 0.336 0.228 0.397 0.403s0.045 0.363-0.049 0.567c-0.094 0.204-0.236 0.335-0.427 0.393-0.182 0.055-0.375 0.035-0.579-0.059-0.066-0.030-0.129-0.069-0.191-0.115-0.063-0.047-0.119-0.099-0.17-0.155 0.016-0.015 0.034-0.035 0.055-0.061 0.020-0.024 0.037-0.046 0.050-0.065l0.014 0.004c0.006 0.024 0.020 0.056 0.043 0.097 0.061 0.106 0.14 0.182 0.239 0.228 0.164 0.076 0.319 0.076 0.466 0 0.136-0.070 0.243-0.189 0.321-0.358 0.082-0.178 0.102-0.341 0.059-0.49s-0.139-0.258-0.288-0.327c-0.067-0.031-0.142-0.050-0.225-0.056-0.083-0.005-0.163 0.003-0.24 0.025l0.063-0.113z"></path>
<path fill="#e2ecf2" style="fill: var(--color1, #e2ecf2)" d="M9.893 23.595c0.060-0.076 0.138-0.12 0.233-0.132 0.093-0.012 0.178 0.012 0.254 0.073s0.121 0.138 0.134 0.234c0.011 0.096-0.013 0.182-0.074 0.258s-0.138 0.119-0.233 0.129c-0.097 0.010-0.184-0.015-0.26-0.075s-0.119-0.138-0.128-0.232c-0.011-0.094 0.014-0.179 0.074-0.255z"></path>
<path fill="#e2ecf2" style="fill: var(--color1, #e2ecf2)" d="M7.376 21.933l1.119-0.848 0.050 0.076 0.059 0.068-1.037 0.786 0.255 0.347 0.266 0.341 1.037-0.786 0.050 0.076 0.059 0.068-1.119 0.848-0.74-0.976z"></path>
<path fill="#e2ecf2" style="fill: var(--color1, #e2ecf2)" d="M7.454 20.867c-0.199 0.094-0.392 0.104-0.578 0.029-0.179-0.072-0.315-0.206-0.408-0.405-0.091-0.193-0.116-0.378-0.077-0.554 0.046-0.202 0.173-0.351 0.381-0.449 0.206-0.097 0.402-0.109 0.59-0.037 0.187 0.072 0.329 0.213 0.428 0.422 0.097 0.207 0.116 0.401 0.056 0.582-0.062 0.18-0.192 0.317-0.392 0.411zM6.519 19.973c-0.037 0.073-0.054 0.151-0.053 0.234 0 0.081 0.019 0.16 0.055 0.237 0.076 0.162 0.194 0.264 0.352 0.304 0.156 0.040 0.329 0.015 0.519-0.074 0.182-0.086 0.302-0.202 0.359-0.35 0.053-0.138 0.045-0.28-0.024-0.427-0.082-0.175-0.221-0.275-0.418-0.3-0.153-0.020-0.298 0.002-0.436 0.067-0.084 0.040-0.155 0.083-0.212 0.129-0.058 0.047-0.105 0.107-0.142 0.18z"></path>
<path fill="#e2ecf2" style="fill: var(--color1, #e2ecf2)" d="M7.13 18.332l0.017 0.089 0.029 0.086-1.358 0.356-0.093-0.355c-0.051-0.193-0.062-0.333-0.034-0.42s0.103-0.146 0.225-0.178c0.116-0.030 0.216-0.018 0.3 0.036 0.077 0.051 0.149 0.145 0.216 0.283 0.008 0.016 0.017 0.039 0.026 0.067s0.014 0.045 0.015 0.049c0.008 0.030 0.014 0.058 0.019 0.082s0.010 0.047 0.014 0.069l0.623-0.163zM6.429 18.516c0-0.004-0.004-0.022-0.012-0.054-0.002-0.012-0.004-0.025-0.008-0.038l-0.010-0.040c-0.003-0.011-0.006-0.021-0.008-0.032-0.007-0.015-0.011-0.026-0.013-0.033-0.035-0.096-0.089-0.163-0.162-0.204s-0.154-0.049-0.242-0.026c-0.071 0.019-0.125 0.051-0.159 0.097-0.039 0.051-0.054 0.101-0.046 0.15 0.007 0.049 0.014 0.087 0.022 0.115 0.007 0.026 0.013 0.048 0.017 0.064 0.008 0.029 0.015 0.056 0.023 0.081 0.007 0.025 0.013 0.049 0.019 0.071l0.58-0.152z"></path>
<path fill="#e2ecf2" style="fill: var(--color1, #e2ecf2)" d="M6.774 16.638l0.004 0.090 0.016 0.089-1.297 0.149c0.012 0.106 0.022 0.181 0.030 0.226s0.023 0.117 0.046 0.218l-0.062 0.001-0.060 0.013-0.121-1.052 0.062-0.001 0.061-0.013c0 0.051 0.002 0.115 0.006 0.194 0.003 0.077 0.010 0.155 0.019 0.235l1.297-0.149z"></path>
<path fill="#e2ecf2" style="fill: var(--color1, #e2ecf2)" d="M5.474 15.002l1.033 0.059c0.009-0.157-0.039-0.288-0.144-0.393-0.106-0.106-0.242-0.164-0.405-0.173-0.149-0.008-0.264 0.031-0.346 0.118s-0.127 0.217-0.137 0.389zM6.497 15.241l-1.033-0.059c-0.010 0.171 0.027 0.305 0.109 0.403 0.081 0.096 0.201 0.149 0.359 0.158 0.161 0.009 0.294-0.031 0.397-0.121 0.102-0.091 0.158-0.219 0.168-0.381zM6.568 15.245c-0.013 0.228-0.081 0.404-0.205 0.529-0.125 0.123-0.279 0.179-0.464 0.169-0.175-0.010-0.306-0.081-0.395-0.214s-0.126-0.316-0.113-0.551l-0.107-0.006c0.002-0.008 0.004-0.021 0.006-0.039s0.004-0.035 0.005-0.051c0.002-0.040 0.002-0.070-0.001-0.091l0.107 0.006c0.014-0.239 0.068-0.418 0.162-0.538 0.093-0.121 0.232-0.176 0.416-0.165 0.179 0.010 0.324 0.082 0.436 0.216 0.121 0.144 0.175 0.329 0.162 0.554l0.119 0.007c-0.005 0.020-0.009 0.043-0.010 0.067l-0.001 0.023c-0.001 0.015-0.002 0.030-0.003 0.045-0.001 0.014 0 0.029 0.004 0.045l-0.119-0.007z"></path>
<path fill="#e2ecf2" style="fill: var(--color1, #e2ecf2)" d="M6.104 13.521c-0.212-0.061-0.363-0.181-0.454-0.359-0.087-0.172-0.101-0.363-0.040-0.573 0.059-0.205 0.161-0.361 0.307-0.467 0.167-0.121 0.361-0.15 0.582-0.086 0.218 0.063 0.374 0.183 0.468 0.361 0.093 0.178 0.107 0.377 0.043 0.6-0.063 0.22-0.177 0.378-0.341 0.474-0.165 0.095-0.354 0.112-0.566 0.051zM5.99 12.233c-0.076 0.031-0.141 0.078-0.194 0.141-0.053 0.062-0.092 0.133-0.115 0.215-0.050 0.172-0.028 0.326 0.064 0.46 0.091 0.133 0.237 0.229 0.439 0.286 0.193 0.056 0.36 0.047 0.501-0.027 0.131-0.069 0.219-0.181 0.263-0.336 0.053-0.185 0.015-0.352-0.116-0.501-0.102-0.116-0.226-0.195-0.372-0.237-0.089-0.026-0.171-0.040-0.244-0.043-0.075-0.003-0.15 0.011-0.226 0.042z"></path>
<path fill="#e2ecf2" style="fill: var(--color1, #e2ecf2)" d="M7.413 11.631l-0.040 0.065-0.028 0.069c-0.030-0.043-0.114-0.149-0.251-0.318-0.111-0.136-0.248-0.302-0.413-0.498s-0.269-0.317-0.314-0.361l0.044-0.086c0.116 0.010 0.233 0.019 0.35 0.027 0.183 0.014 0.412 0.031 0.688 0.049 0.264 0.018 0.425 0.027 0.484 0.026l-0.050 0.085-0.040 0.093-1.263-0.117-0.008 0.017c0.152 0.185 0.3 0.361 0.446 0.527 0.147 0.165 0.279 0.306 0.396 0.423z"></path>
<path fill="#e2ecf2" style="fill: var(--color1, #e2ecf2)" d="M7.074 9.32l0.055-0.072 0.045-0.079 1.167 0.78-0.055 0.072-0.045 0.079-1.167-0.78z"></path>
<path fill="#e2ecf2" style="fill: var(--color1, #e2ecf2)" d="M7.977 9.15c-0.164-0.147-0.248-0.321-0.251-0.521-0.003-0.193 0.068-0.37 0.214-0.533 0.143-0.159 0.303-0.254 0.48-0.286 0.204-0.036 0.391 0.023 0.562 0.177 0.169 0.152 0.257 0.328 0.264 0.53 0.006 0.2-0.069 0.386-0.223 0.558-0.153 0.17-0.324 0.262-0.514 0.277-0.19 0.013-0.367-0.054-0.531-0.202zM8.437 7.941c-0.082-0.005-0.16 0.008-0.236 0.042-0.075 0.032-0.141 0.080-0.197 0.143-0.12 0.133-0.168 0.281-0.144 0.442 0.024 0.16 0.114 0.309 0.269 0.449 0.15 0.134 0.304 0.2 0.462 0.195 0.148-0.005 0.276-0.067 0.384-0.188 0.129-0.143 0.167-0.311 0.114-0.502-0.041-0.149-0.118-0.274-0.231-0.376-0.069-0.062-0.136-0.111-0.201-0.145-0.066-0.035-0.14-0.056-0.221-0.061z"></path>
<path fill="#e2ecf2" style="fill: var(--color1, #e2ecf2)" d="M10.533 6.42l-0.050 0.243c0.242 0.068 0.484 0.134 0.726 0.2l0.251 0.081 0.006 0.009-0.098 0.057-0.093 0.068c-0.036-0.014-0.072-0.028-0.11-0.041-0.037-0.015-0.074-0.027-0.111-0.038l-0.661-0.194c-0.009-0.001-0.018 0.001-0.028 0.006-0.004 0.004-0.005 0.007-0.005 0.008l0.392 0.6-0.079 0.044-0.072 0.055-0.768-1.175 0.079-0.044 0.072-0.055 0.347 0.531c0.004 0.004 0.010 0.002 0.018-0.007 0.009-0.009 0.016-0.020 0.020-0.033 0.004-0.014 0.011-0.044 0.022-0.090 0.004-0.017 0.008-0.034 0.012-0.052l0.138-0.713 0.072-0.040 0.064-0.049-0.145 0.629z"></path>
<path fill="#e2ecf2" style="fill: var(--color1, #e2ecf2)" d="M11.811 6.731l-0.072 0.026-0.065 0.036c0.003-0.053 0.005-0.188 0.004-0.405-0.001-0.175-0.004-0.391-0.008-0.647s-0.010-0.416-0.018-0.478l0.088-0.040c0.084 0.081 0.169 0.161 0.255 0.241 0.133 0.126 0.302 0.283 0.505 0.47 0.194 0.18 0.314 0.288 0.36 0.324l-0.092 0.035-0.089 0.047-0.91-0.884-0.017 0.008c0.001 0.239 0.007 0.47 0.017 0.691 0.011 0.22 0.025 0.413 0.042 0.578z"></path>
<path fill="#e2ecf2" style="fill: var(--color1, #e2ecf2)" d="M12.997 4.72l0.088-0.021 0.084-0.033 0.418 1.34-0.088 0.021-0.084 0.033-0.418-1.34z"></path>
<path fill="#e2ecf2" style="fill: var(--color1, #e2ecf2)" d="M14.827 4.282l0.090-0.009 0.088-0.021 0.23 1.385-0.090 0.009-0.088 0.021-0.116-0.697c-0.066 0.011-0.12 0.019-0.16 0.024-0.163 0.021-0.252 0.033-0.267 0.036-0.065 0.011-0.148 0.027-0.248 0.047-0.101 0.019-0.16 0.031-0.178 0.034l0.116 0.697-0.090 0.009-0.088 0.021-0.23-1.385 0.090-0.009 0.088-0.021 0.096 0.581c0.068-0.011 0.152-0.023 0.254-0.036 0.103-0.014 0.161-0.023 0.175-0.025 0.065-0.011 0.117-0.020 0.158-0.028 0.161-0.032 0.25-0.050 0.266-0.052l-0.096-0.581z"></path>
<path fill="#e2ecf2" style="fill: var(--color1, #e2ecf2)" d="M16.030 4.162l0.090 0.004 0.090-0.009 0.041 1.403-0.090-0.004-0.090 0.009-0.041-1.403z"></path>
<path fill="#e2ecf2" style="fill: var(--color1, #e2ecf2)" d="M17.362 4.63l-0.189 0.161c0.149 0.203 0.298 0.404 0.448 0.606l0.148 0.219-0.001 0.010-0.112-0.016-0.115-0.004c-0.019-0.033-0.040-0.067-0.061-0.1-0.020-0.035-0.041-0.067-0.064-0.098l-0.4-0.56c-0.006-0.006-0.015-0.010-0.026-0.013-0.006 0.001-0.008 0.002-0.009 0.003l-0.062 0.714-0.089-0.014-0.090-0.002 0.122-1.399 0.089 0.014 0.090 0.002-0.055 0.632c0.001 0.006 0.007 0.008 0.018 0.006 0.012-0.002 0.025-0.006 0.036-0.013 0.012-0.009 0.036-0.028 0.073-0.057 0.013-0.011 0.027-0.022 0.042-0.033l0.548-0.475 0.081 0.013 0.080 0.001-0.503 0.405z"></path>
<path fill="#e2ecf2" style="fill: var(--color1, #e2ecf2)" d="M18.646 4.312c0.005 0.003 0.015 0.007 0.031 0.013s0.034 0.011 0.055 0.017l0.089 0.018-0.284 1.033 0.020 0.005c0.001 0 0.032-0.018 0.092-0.056 0.031-0.020 0.101-0.064 0.211-0.133 0.084-0.054 0.16-0.103 0.228-0.148 0.080-0.053 0.175-0.117 0.285-0.192 0.005-0.004 0.091-0.064 0.256-0.179 0.074-0.052 0.111-0.078 0.113-0.078l0.087 0.024-0.372 1.354-0.085-0.030-0.089-0.018 0.297-1.081-0.020-0.005c-0.027 0.017-0.054 0.033-0.080 0.050-0.063 0.039-0.131 0.082-0.204 0.129-0.114 0.072-0.204 0.131-0.27 0.177-0.13 0.088-0.233 0.157-0.309 0.209-0.093 0.064-0.173 0.12-0.24 0.168-0.066 0.049-0.106 0.080-0.119 0.093l-0.063-0.017 0.372-1.354z"></path>
<path fill="#e2ecf2" style="fill: var(--color1, #e2ecf2)" d="M21.897 6.311c-0.048 0.084-0.119 0.139-0.211 0.165-0.090 0.025-0.178 0.014-0.262-0.035s-0.14-0.119-0.167-0.212c-0.025-0.093-0.014-0.182 0.035-0.266s0.119-0.138 0.212-0.162c0.095-0.024 0.184-0.013 0.268 0.036s0.138 0.119 0.161 0.211c0.025 0.092 0.013 0.179-0.036 0.264z"></path>
</symbol>
</defs>
</svg>
