<svg xmlns="http://www.w3.org/2000/svg" aria-hidden="true" style="position:absolute;width:0;height:0;overflow:hidden">
  <defs>
    <symbol id="icon-logo" viewBox="0 0 41 32">
      <path fill="#3f5b6f" d="M5.481 22.637c0 .378-.077.714-.234 1.008-.156.295-.383.545-.683.75s-.661.362-1.086.472a5.826 5.826 0 0 1-1.445.164H.947v2.375H0V20.35h2.033c.537 0 1.02.051 1.445.154s.787.253 1.086.452.526.439.683.72c.155.284.234.603.234.961zm-.837.049c.007-.676-.206-1.199-.637-1.57s-1.103-.56-2.013-.566l-1.047-.01v4.283h1.096c.863 0 1.506-.189 1.927-.566s.647-.901.673-1.57zm2.502-2.335v7.056h-.947v-7.056h.947zm6.6 5.412.672.232a3.614 3.614 0 0 1-.589.652l-.005.004a3.63 3.63 0 0 1-.678.468l-.02.01a3.532 3.532 0 0 1-.752.288 3.03 3.03 0 0 1-.767.099c-.518 0-.999-.094-1.445-.283a3.494 3.494 0 0 1-1.155-.784l-.001-.001a3.687 3.687 0 0 1-.758-1.159l-.009-.024a3.881 3.881 0 0 1-.279-1.486c0-.51.093-.98.279-1.411.189-.438.45-.811.772-1.122l.001-.001c.325-.312.71-.564 1.136-.736l.024-.009c.445-.178.93-.268 1.455-.268a2.955 2.955 0 0 1 1.744.522c.233.163.439.35.623.562.182.212.337.437.463.676l-.518.069a4.405 4.405 0 0 0-.342-.522l.008.011a3.153 3.153 0 0 0-.483-.508l-.005-.004a2.668 2.668 0 0 0-.636-.39l-.017-.007a2.114 2.114 0 0 0-.837-.158c-.386 0-.744.083-1.076.248a2.646 2.646 0 0 0-.858.686l-.004.005c-.243.295-.432.645-.568 1.049s-.205.841-.205 1.312c0 .497.069.958.205 1.381s.324.792.562 1.103c.24.311.523.555.853.73.306.166.669.264 1.056.264h.017-.001c1.13-.002 2.067-1.286 2.137-1.498zm3.63-4.268-1.385 3.289h2.621l.099.209h-2.81l-1.02 2.415h-.286l2.626-6.111-.428-.964h1.118l3.094 7.075h-1.012l-2.616-5.912zm9.373 4.231a1.491 1.491 0 0 1-.272.72l.003-.005a2.126 2.126 0 0 1-.59.561l-.009.005a3.084 3.084 0 0 1-.857.372 3.806 3.806 0 0 1-1.013.135h-.024.001c-1.396 0-2.343-.731-2.759-1.402l.599-.315c.389.58 1.194 1.448 2.159 1.448.645 0 1.154-.126 1.531-.378.375-.252.572-.573.593-.964a1.118 1.118 0 0 0-.055-.468c-.049-.132-.153-.255-.309-.368s-.376-.22-.658-.323c-.282-.103-.65-.214-1.101-.333-.525-.139-.966-.29-1.325-.452s-.644-.343-.857-.541a1.645 1.645 0 0 1-.443-.641 1.666 1.666 0 0 1-.085-.74c.02-.274.11-.524.253-.736l-.003.005c.155-.23.345-.423.565-.576l.007-.005a2.72 2.72 0 0 1 .828-.382 3.61 3.61 0 0 1 .986-.135h.027-.001c.565.013 1.055.108 1.47.283a2.94 2.94 0 0 1 1.111.85l-.554.337c-.273-.344-.597-.68-.907-.888s-.683-.313-1.121-.313c-.313 0-.6.046-.862.139-.263.093-.485.211-.668.353s-.317.304-.404.487-.113.363-.08.541c.02.113.062.222.125.329s.174.213.334.323c.159.109.383.222.672.338s.672.233 1.15.353c.491.126.905.267 1.24.423s.604.333.807.531c.202.199.342.416.418.651s.101.496.075.78zm5.998 0a1.491 1.491 0 0 1-.272.72l.003-.005a2.126 2.126 0 0 1-.59.561l-.009.005a3.084 3.084 0 0 1-.857.372 3.804 3.804 0 0 1-1.012.135h-.024.001c-1.396 0-2.343-.731-2.758-1.402l.599-.315c.389.58 1.194 1.448 2.159 1.448.644 0 1.154-.126 1.53-.378s.572-.573.593-.964a1.102 1.102 0 0 0-.055-.468.83.83 0 0 0-.309-.368c-.156-.112-.375-.22-.658-.323s-.65-.214-1.101-.333c-.525-.139-.966-.29-1.325-.452s-.644-.343-.857-.541a1.645 1.645 0 0 1-.443-.641 1.651 1.651 0 0 1-.084-.74c.02-.265.102-.508.249-.73a2.17 2.17 0 0 1 .566-.576l.007-.005c.236-.165.511-.293.827-.382a3.61 3.61 0 0 1 .986-.135h.026-.001c.565.013 1.055.108 1.47.283a2.94 2.94 0 0 1 1.111.85l-.555.337c-.273-.344-.597-.68-.906-.888s-.683-.313-1.121-.313c-.313 0-.6.046-.862.139-.263.093-.485.211-.668.353s-.317.304-.404.487-.112.363-.08.541c.021.113.062.222.125.329s.174.213.334.323c.16.11.384.222.673.338s.673.233 1.15.353c.491.126.905.267 1.24.423s.604.333.807.531c.202.199.342.416.418.651.078.236.102.496.075.78zm7.826-1.828c0 .531-.093 1.021-.279 1.471a3.658 3.658 0 0 1-.767 1.173 3.48 3.48 0 0 1-1.133.766l-.023.009c-.445.185-.93.278-1.455.278s-1.011-.092-1.459-.278a3.556 3.556 0 0 1-1.166-.775c-.328-.331-.586-.722-.772-1.173s-.279-.941-.279-1.471c0-.53.093-1.02.279-1.471.188-.456.449-.846.773-1.173a3.603 3.603 0 0 1 1.166-.781c.449-.189.935-.283 1.459-.283s1.01.094 1.455.283c.444.189.83.449 1.156.78.321.328.58.718.758 1.149l.009.024c.185.452.279.942.279 1.471zm-.985.001c-.013-.497-.083-.955-.209-1.376s-.303-.785-.533-1.093a2.57 2.57 0 0 0-.815-.719l-.013-.007a2.271 2.271 0 0 0-1.101-.263 2.368 2.368 0 0 0-1.141.249 2.436 2.436 0 0 0-.842.713l-.005.006c-.229.307-.404.674-.523 1.098s-.179.889-.179 1.392c0 .483.06.934.179 1.351s.295.779.523 1.088c.225.302.508.547.833.723l.013.007c.335.178.716.271 1.141.278.439.007.827-.076 1.166-.248.342-.175.626-.419.842-.715l.005-.007c.226-.307.395-.674.508-1.098s.161-.884.149-1.381zm-32.639 6.76a2.23 2.23 0 0 1 .369-.03c.25 0 .426.059.544.167.121.109.191.265.191.481a.71.71 0 0 1-.194.52c-.127.126-.335.193-.596.193-.126 0-.227-.006-.315-.016v-1.315zm.173 1.185c.044.005.108.008.175.008.372 0 .573-.206.573-.569.002-.316-.178-.517-.544-.517a.996.996 0 0 0-.204.018v1.06zm2.964-.493h-.521v.483h.582v.145h-.758v-1.34h.728v.145h-.552v.424h.521v.143zm1.402.628v-1.34h.191l.429.677c.098.157.177.298.239.435l.006-.002a5.79 5.79 0 0 1-.02-.493v-.06.003-.561h.163v1.34h-.175l-.426-.68a4.034 4.034 0 0 1-.249-.447l-.006.002c.01.169.012.33.012.553v.573h-.163zm2.68-1.192h-.408v-.147h.994v.147h-.411v1.193h-.175v-1.193zm1.919.771-.139.421h-.18l.459-1.34h.207l.459 1.34h-.186l-.144-.421h-.476zm.443-.135-.134-.386c-.031-.087-.05-.167-.07-.244h-.003c-.02.077-.039.161-.067.242l-.131.388h.406zm1.673-.783h.175v1.194h.575v.145h-.749V30.64h-.001zm4.532 1.297a.866.866 0 0 1-.354.064c-.379 0-.662-.239-.662-.68 0-.421.285-.704.702-.704.165 0 .273.036.319.059l-.044.141a.621.621 0 0 0-.258-.056h-.011.001c-.315 0-.524.201-.524.553 0 .33.189.538.514.538a.711.711 0 0 0 .285-.056l.034.14zm1.333-1.297h.175v1.194h.575v.145h-.749V30.64h-.001zm2.232 0v1.34h-.175v-1.34h.175zm1.418 1.339v-1.34h.191l.429.677c.098.157.177.298.239.435l.005-.002a5.821 5.821 0 0 1-.02-.495v-.059.003-.561h.163v1.34h-.175l-.426-.68a4.034 4.034 0 0 1-.249-.447l-.006.002c.01.169.012.33.012.553v.573h-.163zm2.6-1.339v1.34h-.175v-1.34h.175zm2.354 1.297a.867.867 0 0 1-.355.064c-.379 0-.661-.239-.661-.68 0-.421.284-.704.701-.704.165 0 .273.036.319.059l-.044.141a.621.621 0 0 0-.258-.056h-.011.001c-.315 0-.524.201-.524.553 0 .33.189.538.514.538a.702.702 0 0 0 .284-.056l.034.14zM23.015 3.341a3.471 3.471 0 0 0-.98-1.243l-.007-.005c-.431-.344-.955-.606-1.569-.783-.615-.179-1.311-.268-2.09-.268h-2.938v7.384c.378 0 .72-.184.968-.479.246-.298.4-.707.4-1.157V1.369l1.513.018c1.316.011 2.285.337 2.909.98.624.644.932 1.551.922 2.722-.039 1.16-.362 2.068-.973 2.722-.609.654-1.539.98-2.788.98h-1.584v-.003h-1.369v5.538h1.369V9.155h1.571c.777 0 1.473-.095 2.087-.285s1.138-.462 1.57-.819a3.5 3.5 0 0 0 .977-1.278l.009-.022c.225-.51.339-1.092.339-1.748.003-.619-.11-1.173-.336-1.661z" style="fill:var(--color1, #3f5b6f)"/>
      <path fill="#3f5b6f" d="M23.26 4.023c0-.62-.113-1.174-.338-1.663a3.471 3.471 0 0 0-.98-1.243l-.007-.005c-.431-.344-.955-.605-1.569-.783-.615-.179-1.311-.268-2.089-.268h-5.458l-.011.252h5.382c.778 0 1.473.089 2.089.268.614.177 1.138.439 1.569.783.418.331.752.749.979 1.228l.009.021c.225.489.338 1.042.338 1.663 0 .489-.063.937-.188 1.344a4.386 4.386 0 0 0 .275-1.596zm-6.167 4.769h-4.212v.363h4.212v-.363zm2.848 5.317.194.422 3.474 2.579.159-.161-3.827-2.841zm8.944-1.989-.213-.067-.012-.004-.082-.028-.053-.017-.087-.028-.168-.054-.088-.029L21.5 9.738l-3.145 3.473.066.049 7.722 5.733 3.29-6.694-.55-.178zm-.445 1.698-.255.519-2.084 4.234v.003l-.038.079-.274-.204h-.003l-7.095-5.27 2.882-3.184.187.058.001.001 7.363 2.375-.684 1.388zm-8.499.291.194.422 3.474 2.579.159-.161-3.827-2.841z" style="fill:var(--color1, #3f5b6f)"/>
      <path fill="#3f5b6f" d="m28.892 12.13-.057.058-.111.112-.197.197-.087.088-.169.168-.088.087-6.206 6.218-.066-.145-2.213-4.804.151-.069.092.067 2.104 4.566 1.723-1.725.83-.833.083-.082.083-.084.078-.075v-.002l3.774-3.783-.037-.071-.052-.097-.087-.158-.257-.471-.831-1.529-2.62.323 2.739-.569.039.073.76 1.399.169.309.087.16.325.599.034.062.007.01z" style="fill:var(--color1, #3f5b6f)"/>
      <path fill="#3f5b6f" d="m24.84 15.875-.053.123-.029.071-.076-.035-.161-.069-5.907-2.564-.19-.142.069-.154.235.101 5.958 2.588.08.156.075-.075z" style="fill:var(--color1, #3f5b6f)"/>
      <path fill="#3f5b6f" d="m26.202 18.773-.199.101-.217-.426h-.002l-1.078-2.122-.107-.209-.077-.153-.157-.311-2.925-5.739.198-.102.121.24h.002l3.005 5.897.022.048.082.16 1.23 2.413v.002l.103.199z" style="fill:var(--color1, #3f5b6f)"/>
      <path fill="#3f5b6f" d="M13.133.286v17.115h8.234c0-.023 0-.045.002-.067h-8.167V.353H26.02v9.523a.547.547 0 0 1 .07-.016V.285H13.133z" style="fill:var(--color1, #3f5b6f)"/>
      <path fill="#3f5b6f" d="M12.791 0v17.685h8.625a.794.794 0 0 1-.019-.062l-.001-.004h-8.534V.068h13.5v9.785l.07.011V0h-13.64z" style="fill:var(--color1, #3f5b6f)"/>
    </symbol>
  </defs>
</svg>
