<svg width="72" height="78" viewBox="0 0 72 78" fill="none" xmlns="http://www.w3.org/2000/svg">
<g clip-path="url(#clip0_80_2436)">
<rect width="72" height="78" fill="white"/>
<path d="M42.5515 16.693C41.7565 14.9895 40.6072 13.5293 39.0959 12.3243C37.5886 11.1193 35.7546 10.2048 33.6057 9.58459C31.4529 8.95657 29.0167 8.64648 26.2932 8.64648H16.0093V34.4896C17.3317 34.4896 18.5281 33.8459 19.3979 32.8135C20.2598 31.7695 20.799 30.3407 20.799 28.7628V9.7887L26.0925 9.8515C30.6972 9.89075 34.0898 11.033 36.2741 13.2821C38.4584 15.5351 39.5367 18.7105 39.5013 22.8084C39.3636 26.867 38.234 30.0463 36.097 32.3347C33.9638 34.623 30.709 35.7652 26.3404 35.7652H20.7951V35.7535H16.0054V55.1358H20.7951V37.037H26.2932C29.0128 37.037 31.4489 36.7033 33.5978 36.04C35.7467 35.3767 37.5807 34.4228 39.092 33.1747C40.6033 31.9265 41.7564 30.4114 42.5436 28.6254C43.3307 26.8395 43.7282 24.8023 43.7282 22.5061C43.74 20.3395 43.3425 18.4004 42.5515 16.693Z" fill="#3F5B6F"/>
<path d="M43.4063 19.0795C43.4063 16.9089 43.0088 14.9699 42.2216 13.2586C41.4266 11.5551 40.2774 10.0949 38.7661 8.88989C37.2588 7.68487 35.4247 6.77031 33.2759 6.15014C31.1231 5.52212 28.6869 5.21204 25.9634 5.21204H6.85967L6.82031 6.09519H25.6564C28.3799 6.09519 30.8121 6.40528 32.9689 7.0333C35.1178 7.65347 36.9518 8.56802 38.4591 9.77304C39.9704 10.9781 41.1236 12.4382 41.9147 14.1417C42.7018 15.8531 43.0993 17.7882 43.0993 19.9627C43.0993 21.6741 42.8789 23.2402 42.442 24.665C43.0836 23.0086 43.4063 21.1559 43.4063 19.0795Z" fill="#3F5B6F"/>
<path d="M21.8226 35.7692H7.07959V37.0409H21.8226V35.7692Z" fill="#3F5B6F"/>
<path d="M31.79 54.3781L32.4709 55.8539L44.6281 64.8817L45.1831 64.3204L31.79 54.3781ZM63.0943 47.4188L62.3504 47.1833L62.3071 47.1676L62.0199 47.0695L61.8349 47.0106L61.5318 46.9125L60.9454 46.724L60.6384 46.622L37.2527 39.0779L26.2446 51.234L26.4768 51.4067L27.142 51.9013L31.1681 54.8883L32.4709 55.8539L44.6281 64.8817L45.2539 65.3449L53.5031 71.472L60.6384 56.9569L60.9454 56.3328L61.5318 55.1317L61.8349 54.5194L65.0188 48.0429L63.0943 47.4188ZM61.5358 53.3614L60.9494 54.5547L60.6424 55.1788L53.3496 69.9962V70.008L53.2158 70.2827L52.2555 69.5683H52.2436L45.8128 64.7914L45.187 64.3244L31.7939 54.382L31.4712 54.1465L30.3062 53.2751L27.5473 51.2222L27.4135 51.1241L37.292 40.2122L37.5006 39.9807L38.154 40.1848L38.1579 40.1887L60.6424 47.4463L60.9494 47.5444L61.5358 47.7367L61.6932 47.7838L61.8388 47.8309L62.5315 48.0507L63.9286 48.5021L61.8388 52.7452L61.5358 53.3614ZM31.79 54.3781L32.4709 55.8539L44.6281 64.8817L45.1831 64.3204L31.79 54.3781Z" fill="#3F5B6F"/>
<path d="M63.1175 47.4543L62.9168 47.6584L62.5271 48.0509L61.8384 48.7417L61.5353 49.0479L60.945 49.6366L60.638 49.9428L49.0396 61.5533L48.465 62.1382L45.8084 64.7916L45.2535 65.345L39.3106 71.2995L38.9171 71.7037L38.6849 71.1974L31.1717 54.8885L30.9395 54.3821L31.4668 54.1427L31.7896 54.3782L32.4704 55.854L39.1532 70.3574L44.6277 64.8819L45.1826 64.3206L48.0872 61.4042L48.3784 61.1177L48.6696 60.8233L48.9412 60.5603V60.5524L60.638 48.8398L60.945 48.5297L61.5353 47.941L61.6928 47.784L61.8384 47.6309L62.1493 47.313L62.0194 47.0657L61.8384 46.7281L61.5353 46.1747L60.945 45.0913L60.638 44.5261L57.7295 39.1762L48.5594 40.3066L57.8791 38.3676L58.1467 38.3126L58.2845 38.5678L60.638 42.9011L60.945 43.4663L61.5353 44.5457L61.8384 45.107L62.9758 47.203L63.0939 47.4189L63.1175 47.4543Z" fill="#3F5B6F"/>
<path d="M48.9379 60.5601L48.7529 60.9918L48.6506 61.2391L48.3829 61.1174L47.8201 60.8741L30.3025 53.2711L27.1461 51.9012L26.481 51.4027L26.721 50.865L27.5436 51.2183L47.2692 59.7868L48.3948 60.2775L48.6742 60.8231L48.9379 60.5601Z" fill="#3F5B6F"/>
<path d="M53.7023 70.7028L53.0056 71.056L52.2461 69.5645H52.2382L48.4639 62.1381L48.09 61.408L47.8184 60.8742L47.2674 59.787L37.2866 40.2123L37.0308 39.702L37.7234 39.3448L38.1485 40.1848H38.1564L48.393 60.2776L48.6725 60.8232L48.7512 60.992L49.0385 61.5533L53.3441 70.0001V70.008L53.7023 70.7028Z" fill="#3F5B6F"/>
<path d="M7.96436 6.00098V65.9024H36.7813C36.7813 65.8239 36.7813 65.7454 36.7892 65.6669H8.20443V6.23648H53.0671V39.5648C53.1458 39.5412 53.2285 39.5216 53.3111 39.5098V6.00098H7.96436Z" fill="#3F5B6F"/>
<path d="M6.76807 5V66.8954H36.9546C36.9271 66.8209 36.9035 66.7424 36.8838 66.6639H7.01602V5.2355H54.2637V39.4823C54.3464 39.4941 54.429 39.5059 54.5077 39.5216V5H6.76807Z" fill="#3F5B6F"/>
</g>
<defs>
<clipPath id="clip0_80_2436">
<rect width="72" height="78" fill="white"/>
</clipPath>
</defs>
</svg>
